<svg version="1.1" xmlns="http://www.w3.org/2000/svg" xmlns:xlink="http://www.w3.org/1999/xlink" width="181.3411" height="34.80269" viewBox="0,0,181.3411,34.80269"><g transform="translate(-149.32945,-162.59865)"><g data-paper-data="{&quot;isPaintingLayer&quot;:true}" fill-rule="nonzero" stroke-width="0.55335" stroke-linecap="butt" stroke-linejoin="miter" stroke-miterlimit="10" stroke-dasharray="" stroke-dashoffset="0" style="mix-blend-mode: normal"><path d="M164.68332,173.23118c9.241,0.498 20.142,5.9208 21.4147,5.1461c1.2728,-0.7747 -2.822,-11.565 5.1462,-14.9405c12.1738,-5.1462 36.4659,14.7745 52.9005,22.5215c3.3201,-1.2728 18.814,-7.9683 29.2723,-9.6284c9.6837,-1.5494 9.1857,2.7115 9.739,3.2095c0.4427,0.3873 6.7509,-1.9368 17.5966,-4.5929c9.905,-2.4347 27.3909,-3.2647 29.6043,4.4822c3.7075,13.1698 -26.2842,16.2685 -46.1495,17.5413c-19.8654,1.2727 -68.837,-0.5534 -94.3466,-1.8261c-29.2723,-1.4387 -41.6674,-9.6283 -40.45,-16.2132c0.7747,-4.1502 7.7469,-6.0869 15.2725,-5.6995z" fill="#e3deee" stroke="none"/><path d="M273.58302,195.03318c-11.2884,-1.2727 -18.2606,-2.9881 -29.4937,-9.0196c3.3202,-1.2727 18.814,-7.9683 29.2724,-9.6283c9.6836,-1.5494 9.1856,2.7114 9.739,3.2094c0.4427,0.3873 6.7509,-1.9367 17.5966,-4.5928c9.2409,-2.2688 25.0115,-3.1541 28.9403,2.9881c1.2174,4.7035 -2.1028,9.1303 -9.6283,11.9524c-8.3557,3.0434 -31.2644,6.6955 -46.4263,5.0908z" fill="#ffffff" stroke="#e3deee"/></g></g></svg>