<svg version="1.1" xmlns="http://www.w3.org/2000/svg" xmlns:xlink="http://www.w3.org/1999/xlink" width="481.37416" height="381.75195" viewBox="0,0,481.37416,381.75195"><defs><linearGradient x1="401.16976" y1="202.86167" x2="478.16992" y2="202.86167" gradientUnits="userSpaceOnUse" id="color-1"><stop offset="0.012" stop-color="#a7a9ac"/><stop offset="1" stop-color="#414042"/></linearGradient><linearGradient x1="404.05778" y1="202.86091" x2="475.28114" y2="202.86091" gradientUnits="userSpaceOnUse" id="color-2"><stop offset="0" stop-color="#d1d2d3"/><stop offset="1" stop-color="#a4a5a8"/></linearGradient><linearGradient x1="400.16978" y1="285.05148" x2="479.16992" y2="285.05148" gradientUnits="userSpaceOnUse" id="color-3"><stop offset="0.012" stop-color="#a7a9ac"/><stop offset="1" stop-color="#414042"/></linearGradient><linearGradient x1="403.13281" y1="284.0507" x2="476.20611" y2="284.0507" gradientUnits="userSpaceOnUse" id="color-4"><stop offset="0" stop-color="#d1d2d3"/><stop offset="1" stop-color="#a4a5a8"/></linearGradient></defs><g transform="translate(1.29208,0)"><g data-paper-data="{&quot;isPaintingLayer&quot;:true}" stroke="none" stroke-width="1" stroke-linecap="butt" stroke-linejoin="miter" stroke-miterlimit="10" stroke-dasharray="" stroke-dashoffset="0" style="mix-blend-mode: normal"><path d="M0.01113,0h479.97773v360h-479.97773z" fill="#d0f6ff" fill-rule="nonzero"/><path d="M342.99816,74.79224c6.04614,-1.04732 12.26403,2.04541 15.56815,7.74324c1.39803,2.41053 2.18593,2.4898 3.32454,0.33029c8.54915,-16.21071 31.11107,-6.76678 28.00993,11.72475c-1.23829,7.39013 -3.0579,10.05888 -15.00965,22.02025c-4.66372,4.66612 -9.8571,10.23784 -11.54219,12.38173l-3.0627,3.89744l-0.72064,-0.87197c-0.39755,-0.48042 -1.76676,-2.1523 -3.04349,-3.71728c-1.27673,-1.56498 -6.06896,-6.57701 -10.6486,-11.13984c-10.01685,-9.97961 -11.97818,-12.41296 -13.80019,-17.13313c-4.48356,-11.60945 0.64377,-23.45551 10.92485,-25.23548" fill="#ff0000" fill-rule="evenodd"/><path d="M109.12643,55.39391c0.39155,-1.25991 0.82032,-1.47971 1.28273,-0.65458c0.15854,0.28345 2.80448,3.07832 5.87919,6.20828l5.58974,5.69183l5.22942,-0.10449c2.87654,-0.05765 5.58493,0.03003 6.01851,0.19337c0.46241,0.17415 -1.75115,0.28946 -5.35193,0.27745l-6.14102,-0.01922l-5.884,-6.1122c-3.23686,-3.36057 -5.97408,-6.02452 -6.08217,-5.91763c-0.1093,0.10569 -0.43839,2.21596 -0.73145,4.68774l-0.53447,4.49677l0.18136,-3.78815c0.09849,-2.08264 0.3435,-4.31421 0.54408,-4.95918M144.96128,65.46c6.92532,-4.71056 6.43168,-4.92795 6.76197,2.98223l0.26904,6.4569l1.27793,1.27793c2.54024,2.54024 5.31589,7.56908 5.75548,10.43001c0.11891,0.77108 -0.24021,0.07206 -0.84675,-1.65146c-1.12539,-3.19842 -2.85132,-6.06776 -5.15015,-8.56116l-1.42566,-1.54697l-0.2222,-6.17826c-0.12131,-3.399 -0.35311,-6.25993 -0.51405,-6.35962c-0.16094,-0.09969 -2.4958,1.29474 -5.18978,3.09754c-2.69398,1.80279 -5.17417,3.38099 -5.51287,3.5059c-0.3375,0.12491 1.82081,-1.42926 4.79704,-3.45305M107.68035,69.19049c0.24982,-2.57868 0.51526,-4.40429 0.58972,-4.05718c0.07447,0.34831 -0.03843,2.36489 -0.25222,4.48116c-0.21259,2.11747 -0.38674,4.13645 -0.38674,4.48716c0,0.35191 -1.18545,1.82441 -2.63513,3.27409c-2.69278,2.69278 -3.93948,4.58085 -5.5477,8.40622c-0.50084,1.19025 -0.97046,2.22677 -1.04372,2.30484c-0.07326,0.07807 -0.98967,-0.51766 -2.0358,-1.32357c-3.11435,-2.39612 -6.77999,-4.48236 -7.43817,-4.23134c-0.47082,0.17896 -0.50324,0.13332 -0.15494,-0.21739c0.66779,-0.67379 3.99713,1.1326 7.96303,4.32142l1.55177,1.2467l0.227,-0.86837c0.87077,-3.33294 5.56932,-10.34233 7.53065,-11.23592c1.03291,-0.46961 1.04372,-0.51526 1.63224,-6.58782M136.66555,67.87292c-0.48643,-0.20898 -0.31107,-0.23661 0.54048,-0.08528c0.69421,0.12251 1.50613,0.36873 1.80399,0.54768c0.64017,0.38314 -1.22869,0.01441 -2.34447,-0.46241M123.53075,76.69352c-0.08287,-0.06005 0.02162,-0.1093 0.2306,-0.1093c0.20898,0 0.76387,0.33389 1.23229,0.74226l0.85155,0.74346l-1.08216,-0.63416c-0.59452,-0.34831 -1.14941,-0.6822 -1.23229,-0.74226M117.12549,77.75646c0.40115,-0.44679 0.81072,-0.81192 0.9104,-0.81192c0.09969,0 -0.21019,0.44679 -0.68821,0.99208c-1.46169,1.66827 -1.54456,1.74634 -1.2407,1.17224c0.15854,-0.29786 0.61614,-0.9056 1.0185,-1.35239M147.03551,77.915c-0.34711,-0.09128 -0.06366,-0.16455 0.63056,-0.16455c0.69421,0 0.97886,0.07326 0.63176,0.16455c-0.34711,0.09008 -0.91521,0.09008 -1.26231,0M126.6451,78.76054l-0.79991,-0.9092l0.85275,0.71944c0.87077,0.73265 2.93059,4.03316 2.92458,4.68654c-0.0024,0.19818 -0.49243,-0.52847 -1.09056,-1.61302c-0.59813,-1.08576 -1.44728,-2.3829 -1.88687,-2.88375M144.446,79.33825c0.41196,-0.52246 0.84194,-0.95124 0.95845,-0.95124c0.1153,0 -0.03603,0.28465 -0.3375,0.63176c-0.30027,0.34711 -0.72544,0.95604 -0.94644,1.35239c-0.21979,0.39635 -0.40476,0.54048 -0.41076,0.31948c-0.00601,-0.221 0.32549,-0.82993 0.73625,-1.35239M149.83038,78.45306c-0.09969,-0.09008 0.14413,0.00841 0.54048,0.21739c0.39755,0.21019 1.37161,1.07855 2.16431,1.93131c1.42566,1.53015 0.80831,1.04012 -2.70479,-2.1487M154.59138,83.97075c-0.43118,-0.88878 -0.70863,-1.61543 -0.61614,-1.61543c0.24502,0 1.7019,2.92939 1.53856,3.09273c-0.07567,0.07567 -0.49003,-0.58972 -0.92241,-1.4773M89.90826,83.81821c-0.66779,-0.40596 -1.08336,-0.73985 -0.92482,-0.74105c0.49844,-0.0012 2.4922,1.12659 2.31084,1.30796c-0.09488,0.09488 -0.71944,-0.15974 -1.38602,-0.5669M143.07561,84.51963c0,-0.89359 0.07086,-1.25871 0.15614,-0.81192c0.08648,0.44679 0.08648,1.17704 0,1.62263c-0.08528,0.44679 -0.15614,0.08167 -0.15614,-0.81072M69.44338,84.70219c3.57316,-3.22845 5.64138,-1.41125 6.77278,5.95246c0.9008,5.85877 1.99256,8.69568 4.14966,10.78552l1.27192,1.22989l1.85684,-0.59933c3.58517,-1.15782 7.06944,-0.63176 9.32744,1.40764c1.60702,1.45208 6.15303,1.9265 6.15303,0.64257c0,-1.72232 -4.81505,-4.69975 -9.46916,-5.85517c-5.86358,-1.45689 -8.52152,-4.48116 -7.44658,-8.47228c0.39755,-1.4773 2.08024,-3.47827 2.91137,-3.46146c0.26303,0.0048 0.05165,0.27384 -0.46961,0.59813c-4.88231,3.03028 -2.06823,9.08122 5.0961,10.95728c5.42279,1.41965 10.09852,4.65771 10.09852,6.99257c0,0.94523 -5.60295,0.10689 -6.85686,-1.02571c-2.14149,-1.93491 -5.07328,-2.41173 -8.91187,-1.44848c-4.35745,1.09297 -6.87367,-2.65314 -8.20084,-12.20758c-0.55729,-4.01274 -1.19025,-5.79031 -2.19554,-6.17585c-2.69038,-1.03291 -5.13574,1.10017 -6.69952,5.84076c-0.39755,1.20586 -0.60533,1.56498 -0.50445,0.87317c0.30027,-2.07063 1.67428,-4.73098 3.11675,-6.03413M127.26245,84.36469c-0.31228,-0.31228 -0.39875,-0.5669 -0.19337,-0.5669c0.53687,0 1.19506,1.37161 1.00529,2.09225c-0.12011,0.4528 -0.17295,0.40716 -0.20418,-0.17295c-0.02282,-0.43238 -0.29666,-1.04132 -0.60774,-1.35239M91.7615,84.62652c0,-0.32429 5.94765,3.99233 6.31157,4.58085c0.10209,0.16575 0.02282,0.72904 -0.17656,1.25391l-0.36272,0.95244l-1.79318,-1.55417c-0.98607,-0.85395 -2.4886,-1.91449 -3.33775,-2.35408c-0.84915,-0.44079 -1.31396,-0.80711 -1.03411,-0.81192c0.6738,-0.01321 3.63801,1.90368 4.71416,3.04829c1.05453,1.12299 1.44968,1.14942 1.44728,0.09729c-0.0024,-0.59573 -0.76988,-1.37762 -2.88615,-2.93659c-1.5854,-1.16983 -2.88255,-2.19314 -2.88255,-2.27601M69.87577,85.69187c0.40236,-0.44679 0.81192,-0.81192 0.9116,-0.81192c0.09849,0 -0.21139,0.44559 -0.68941,0.99208c-1.46049,1.66707 -1.54336,1.74634 -1.23949,1.17224c0.15854,-0.29786 0.61614,-0.9068 1.0173,-1.35239M73.65791,85.42043c-0.32549,-0.70983 -0.32188,-0.70983 0.2294,-0.02042c0.30867,0.38434 0.54768,0.95244 0.53207,1.26231c-0.02402,0.48523 -0.05525,0.48763 -0.2282,0.02042c-0.1105,-0.29666 -0.35071,-0.86476 -0.53327,-1.26231M115.23022,85.63061c-0.03603,-1.25991 0.20418,-0.80231 0.46001,0.87197c0.15253,1.00529 0.12011,1.22388 -0.1081,0.72184c-0.17896,-0.39755 -0.3375,-1.11338 -0.35191,-1.59381M130.11376,87.7649c0,-1.48691 0.06366,-2.09585 0.14173,-1.35239c0.07807,0.74466 0.07807,1.96133 0,2.70479c-0.07807,0.74466 -0.14173,0.13572 -0.14173,-1.35239M86.80712,86.22033c-0.54888,-0.08287 -0.18616,-0.15253 0.80591,-0.15494c0.99208,-0.0036 1.44007,0.06486 0.99688,0.15013c-0.44319,0.08528 -1.25511,0.08768 -1.80279,0.0048M143.34345,87.25445c-0.00721,-0.92241 0.19938,-0.63536 0.49604,0.69061c0.17656,0.7903 0.14293,0.93683 -0.12371,0.54168c-0.20178,-0.29786 -0.36873,-0.85275 -0.37233,-1.23229M155.99782,88.3366c-0.05525,-1.59981 0.20658,-0.97766 0.44079,1.05213c0.14052,1.21547 0.1081,1.50973 -0.09849,0.9008c-0.16815,-0.49604 -0.32309,-1.37521 -0.3423,-1.95292M150.19069,88.38104c0,-0.2294 0.25342,-0.05525 0.5621,0.38554c0.72304,1.03291 2.12107,1.03291 2.84411,0c0.30867,-0.44079 0.5621,-0.65578 0.5621,-0.47922c0,0.64977 -1.21667,1.64185 -2.01418,1.64185c-0.87197,0 -1.95413,-0.85756 -1.95413,-1.54817M74.8926,91.01136c0,-0.69421 0.07447,-0.97886 0.16455,-0.63176c0.09128,0.34711 0.09128,0.91521 0,1.26352c-0.09008,0.34711 -0.16455,0.06246 -0.16455,-0.63176M159.68748,92.99551c-0.0024,-1.38963 0.06125,-2.00097 0.14173,-1.3608c0.07927,0.64017 0.08047,1.77637 0.0024,2.52463c-0.07807,0.74826 -0.14293,0.2246 -0.14413,-1.16383M144.78112,91.17471c0,-0.15494 0.63416,0.59813 1.40884,1.67188c1.34158,1.85684 1.93131,2.36609 4.00073,3.45665c0.49604,0.26063 0.69541,0.47562 0.44319,0.47682c-1.29715,0.00601 -5.85277,-4.35745 -5.85277,-5.60535M128.21369,93.27176c0.681,-0.83954 1.28393,-1.52895 1.34158,-1.53255c0.30747,-0.01922 -0.71583,1.38002 -1.57939,2.1571c-0.82993,0.74826 -0.7891,0.64137 0.23781,-0.62455M119.51681,93.33541c-0.27745,-0.33389 0.12131,-0.18256 0.88758,0.3375c0.76628,0.52006 1.56018,0.94523 1.76436,0.94523c0.20298,0 0.27744,0.09368 0.16334,0.20658c-0.27865,0.27865 -2.18593,-0.73024 -2.81529,-1.48932M118.44306,93.70654c-0.24742,-0.29786 0.36032,-0.01201 1.34999,0.63656c0.98967,0.64737 1.74995,1.23589 1.68989,1.30796c-0.15974,0.19337 -2.51622,-1.31396 -3.03988,-1.94452M155.42612,94.24101c0.23661,-0.74346 0.53567,-0.94403 0.53567,-0.35672c0,0.48163 -2.15951,2.89816 -2.58949,2.89816c-0.19337,0 0.13932,-0.41316 0.73865,-0.91761c0.60053,-0.50445 1.19145,-1.23469 1.31516,-1.62383M66.17891,95.15862c0.01201,-0.39635 0.25703,0.15494 0.54528,1.22628c0.28825,1.07135 0.4516,2.02018 0.36272,2.10786c-0.21499,0.21619 -0.93563,-2.42614 -0.908,-3.33414M124.40272,94.97847c0.99208,-0.13572 1.96494,-0.27024 2.16431,-0.29786c0.19818,-0.02883 0.1165,0.10569 -0.18136,0.29786c-0.29666,0.19217 -1.27072,0.32669 -2.16311,0.29906l-1.62383,-0.05165l1.80399,-0.24742M124.58288,96.06062c1.77036,-0.37233 2.4898,-0.37233 1.62263,0c-0.39635,0.17055 -1.20827,0.30027 -1.80279,0.28825c-1.05693,-0.02162 -1.05213,-0.02883 0.18016,-0.28825M159.20826,96.04501c0,-0.18136 0.89239,0.57771 1.98295,1.68629c1.09176,1.10858 1.98415,2.1499 1.98415,2.31324c0,0.16334 -0.89239,-0.59573 -1.98415,-1.68629c-1.09056,-1.09056 -1.98295,-2.13188 -1.98295,-2.31324M149.83038,97.45025c-0.34591,-0.20298 -0.15133,-0.23301 0.54048,-0.08287c0.59573,0.12851 1.32597,0.37593 1.62383,0.55009c0.34591,0.20298 0.15133,0.23301 -0.54168,0.08287c-0.59452,-0.12851 -1.32477,-0.37593 -1.62263,-0.55009M158.66659,97.3938c-0.19817,-0.20178 0.12611,-0.03243 0.72184,0.37713c0.59453,0.40956 1.48811,1.20226 1.98415,1.76075c0.7939,0.89599 -1.54456,-0.95124 -2.70599,-2.13789M135.40325,99.84757c-0.67259,-0.69421 -1.14221,-1.26231 -1.04372,-1.26231c0.09969,0 0.73145,0.5681 1.40404,1.26231c0.6738,0.69421 1.14221,1.26231 1.04372,1.26231c-0.09969,0 -0.73145,-0.5681 -1.40404,-1.26231M142.55315,100.25953c1.52535,-1.52535 1.80399,-1.66587 0.89239,-0.4492c-1.00889,1.34399 -2.75283,2.38651 -3.91666,2.34087c-0.93923,-0.03723 -0.902,-0.07206 0.32549,-0.30987c0.87557,-0.16935 1.86765,-0.75066 2.69878,-1.5818M68.17265,100.74956c-0.42998,-0.88638 -0.4528,-1.04732 -0.07687,-0.54048c2.17152,2.92338 3.07832,3.82658 6.89409,6.86887c0.52606,0.42037 0.38674,0.39875 -0.51646,-0.08047c-1.71872,-0.9116 -5.56331,-4.72497 -6.30076,-6.24792M172.19292,101.34409c1.91689,-0.85996 2.57748,-0.68821 0.72064,0.18737c-2.09345,0.98727 -9.02597,1.21187 -9.2806,0.30027c-0.12611,-0.4492 -0.09248,-0.4552 0.19938,-0.03963c0.47082,0.675 6.58782,0.34591 8.36058,-0.448M173.17179,102.22807c0.35431,-0.20538 0.80591,-0.36512 1.00409,-0.35551c1.03652,0.05645 -2.81889,1.38242 -4.51238,1.55417c-1.96133,0.19697 -1.95653,0.19457 0.44199,-0.31228c1.33198,-0.28105 2.71199,-0.6798 3.06631,-0.88638M164.04132,104.53651c-0.12611,-1.01129 -0.1141,-1.0233 0.17776,-0.18016c0.17055,0.49604 0.2282,1.81961 0.12731,2.9414l-0.18496,2.0394l1.76196,0.5681c0.96805,0.31228 1.27312,0.48403 0.6786,0.38194c-2.69878,-0.46121 -2.95701,-0.73024 -2.67837,-2.79126c0.13932,-1.03171 0.19217,-2.36369 0.1177,-2.95941M144.60337,107.59801c0.12131,-0.19577 0.454,-0.35672 0.73985,-0.35672c0.58732,0 0.70742,0.92362 0.16334,1.25991c-0.21259,0.13212 -0.26063,-0.03123 -0.1177,-0.40115c0.18496,-0.48283 0.09849,-0.5693 -0.38434,-0.38434c-0.36993,0.14293 -0.53207,0.09488 -0.40115,-0.1177M76.85513,108.56967l-1.14461,-1.0161l1.0209,0.4564c0.98487,0.43959 2.67356,3.05189 2.24839,3.47707c-0.1141,0.1141 -1.22148,-0.05885 -2.45977,-0.38314c-1.47851,-0.38794 -1.75595,-0.52727 -0.80951,-0.40356c0.7939,0.10209 1.74274,0.27504 2.11026,0.38314c1.03531,0.30627 0.42758,-1.27793 -0.96565,-2.51382M162.81505,108.11326c0,-0.28105 0.08047,-0.51045 0.18016,-0.51045c0.09849,0 0.18016,0.32429 0.18016,0.72064c0,0.4576 -0.2306,0.71103 -0.63056,0.69301c-0.37713,-0.01681 -0.4504,-0.10089 -0.18136,-0.21019c0.24862,-0.09969 0.4516,-0.41196 0.4516,-0.69301M139.63337,108.22376c-0.64017,-0.08047 -0.02883,-0.14413 1.3608,-0.14173c1.38843,0.0012 1.91209,0.06606 1.16383,0.14413c-0.74826,0.07807 -1.88446,0.07687 -2.52463,-0.0024M160.09464,108.34747c0.29666,-0.47922 0.58732,-0.47802 1.27793,0.00601c0.42277,0.29666 0.36392,0.32909 -0.27144,0.15013c-0.52606,-0.14773 -0.81072,-0.07206 -0.81072,0.21739c0,0.24382 -0.09729,0.34711 -0.21739,0.2282c-0.11891,-0.11891 -0.1093,-0.38914 0.02162,-0.60173M71.29783,110.38567c-0.54888,-0.08287 -0.18616,-0.15253 0.80591,-0.15494c0.99208,-0.0024 1.44127,0.06486 0.99688,0.15013c-0.44319,0.08648 -1.25511,0.08768 -1.80279,0.0048M68.91372,110.89612c1.15422,-0.67019 1.34519,-0.44079 0.30987,0.37353c-3.23926,2.54865 -2.39732,7.07665 1.68629,9.0632c1.05333,0.51285 1.66347,0.94163 1.3548,0.95364c-4.42351,0.17295 -7.12349,-8.19724 -3.35096,-10.39038M104.92632,112.29175c-0.97766,-0.99208 -1.6959,-1.80399 -1.59621,-1.80399c0.09849,0 0.97886,0.81192 1.95653,1.80399c0.97646,0.99208 1.6947,1.80279 1.59621,1.80279c-0.09969,0 -0.98007,-0.81072 -1.95653,-1.80279M163.17536,110.8697c0,-0.52847 1.01249,-0.47682 3.09874,0.15494c2.0334,0.61735 4.99521,0.73505 4.65531,0.18496c-0.12251,-0.19817 -0.73985,-0.38554 -1.37281,-0.41557c-1.06534,-0.04924 -1.07855,-0.06486 -0.17776,-0.20178c1.33678,-0.20418 2.63513,0.50445 2.10186,1.14701c-0.4528,0.54528 -2.21956,0.42277 -5.54289,-0.38194c-1.15902,-0.28105 -2.25439,-0.41917 -2.43455,-0.30747c-0.18016,0.1105 -0.32789,0.03003 -0.32789,-0.18016M162.49435,112.74215c0.40836,-1.22388 0.681,-1.50493 0.681,-0.70022c0,0.25943 -0.24141,0.7879 -0.53567,1.17224c-0.49123,0.64017 -0.50324,0.60053 -0.14533,-0.47202M161.19121,113.01239c0.30867,-0.59452 0.64137,-1.08216 0.73985,-1.08216c0.09969,0 -0.07086,0.48763 -0.37833,1.08216c-0.30867,0.59573 -0.64137,1.08216 -0.73985,1.08216c-0.09969,0 0.07086,-0.48643 0.37833,-1.08216M165.88015,114.08734c6.64667,-2.79006 10.65701,6.16144 4.60487,10.27507c-1.86284,1.26592 -2.33726,1.15302 -0.5621,-0.13452c3.36657,-2.43815 4.14726,-6.52416 1.71391,-8.95751l-1.27793,-1.27793l-2.6003,0.19938c-1.54096,0.1177 -2.30604,0.07567 -1.87846,-0.10449M161.61278,114.35758c0.14773,-0.23781 0.30027,-0.26183 0.36993,-0.05525c0.06366,0.19337 0.80471,0.31468 1.64665,0.26904l1.53015,-0.08287l-1.5842,0.33389c-1.69229,0.35672 -2.37089,0.19697 -1.96253,-0.46481M157.76458,117.08038c0.69541,-0.64017 1.33558,-1.16743 1.42446,-1.17224c0.44079,-0.02642 -2.27841,2.43095 -3.30652,2.98704c-1.14101,0.61855 -1.15182,0.61855 -0.28105,-0.00601c0.49484,-0.35551 1.4689,-1.16983 2.16311,-1.8088M113.04069,117.15845c0,-0.09368 0.88878,0.26543 1.97454,0.7975c1.08456,0.53207 1.91209,1.02811 1.83882,1.10257c-0.16214,0.16214 -3.81337,-1.65746 -3.81337,-1.90008M113.94268,119.50052c1.0161,-0.43118 0.85275,-0.46241 3.61759,0.71583c1.38242,0.58972 2.27,1.07375 1.97334,1.07375c-0.29786,0.0012 -1.27192,-0.3363 -2.16431,-0.75186c-0.89239,-0.41437 -2.19073,-0.74826 -2.88615,-0.74226c-1.01129,0.00841 -1.11939,-0.04924 -0.54048,-0.29546M109.61406,120.59228c2.91978,-0.77228 4.18209,-0.88638 2.34447,-0.21259c-0.69421,0.25462 -2.07303,0.55729 -3.06511,0.67259c-1.64906,0.19097 -1.5878,0.15133 0.72064,-0.46001M73.45493,121.69726c-0.83354,-0.48523 -0.34711,-0.448 2.25559,0.17535l2.16431,0.51886l-1.89527,-0.16455c-1.04252,-0.09008 -2.17872,-0.32909 -2.52463,-0.52967M102.40049,121.88342c1.5878,-0.26063 3.21044,-0.48643 3.60678,-0.50204c2.13068,-0.08167 -1.19506,0.63656 -3.68365,0.7963l-2.80808,0.18016l2.88495,-0.47442M121.15625,121.84739l-1.08216,-0.50925l1.08216,0.21859c0.59573,0.12131 1.40644,0.34711 1.80399,0.50324l0.72064,0.28465l-0.72064,0.00721c-0.39755,0.0036 -1.20827,-0.2234 -1.80399,-0.50445M125.84519,122.01314c-0.50324,-0.2282 -0.28465,-0.26063 0.72184,-0.10689c0.7927,0.12011 1.50973,0.27865 1.59261,0.35191c0.30987,0.27264 -1.62263,0.06846 -2.31444,-0.24502M78.50659,122.63889c-0.34711,-0.09008 -0.06366,-0.16455 0.63056,-0.16455c0.69421,0 0.97886,0.07447 0.63176,0.16455c-0.34711,0.09128 -0.91521,0.09128 -1.26231,0M97.0858,122.6449c-0.4492,-0.08528 -0.16695,-0.15974 0.62695,-0.16334c0.7927,-0.0048 1.16022,0.06606 0.81552,0.15614c-0.3447,0.09128 -0.99448,0.09368 -1.44247,0.00721M85.37547,123.01963c-1.54697,-0.06846 -0.37713,-0.12371 2.59789,-0.12371c2.97623,-0.0012 4.24095,0.05405 2.81168,0.12251c-1.42806,0.06846 -3.86261,0.06846 -5.40958,0.0012M125.84519,123.08449l-0.72184,-0.28825l0.72184,0.01201c0.39635,0.00721 1.53255,0.2282 2.52463,0.49364l1.80399,0.48042l-1.80399,-0.20538c-0.99208,-0.1117 -2.12828,-0.33389 -2.52463,-0.49243M146.97304,123.24783c1.96734,-0.52606 1.72953,-0.52366 3.12036,-0.01802c1.06054,0.38554 0.902,0.42397 -1.77517,0.43358c-2.91377,0.01081 -2.92578,0.00601 -1.34519,-0.41557M135.49332,123.37874c-1.33918,-0.06846 -0.24382,-0.12611 2.43455,-0.12611c2.67837,0 3.77373,0.05765 2.43455,0.12611c-1.33918,0.06966 -3.52992,0.06966 -4.8691,0M131.52621,124.08137c-0.34711,-0.09008 -0.06366,-0.16455 0.63056,-0.16455c0.69421,0 0.97886,0.07447 0.63176,0.16455c-0.34711,0.09128 -0.91521,0.09128 -1.26231,0M136.04821,124.4609c-1.2479,-0.07086 -0.32068,-0.12851 2.05982,-0.12971c2.3805,0 3.4014,0.05765 2.2688,0.12851c-1.1326,0.07206 -3.08072,0.07206 -4.32862,0.0012M153.07682,124.55458c-0.71703,-0.46361 0.18376,-0.46361 1.26231,0l0.72064,0.30987l-0.72064,0.01922c-0.39755,0.01201 -0.96565,-0.13692 -1.26231,-0.32909M157.52798,125.72081c-0.2294,-0.14533 2.06823,-0.26423 5.10571,-0.26423c3.03628,0 5.44681,0.12131 5.35433,0.27024c-0.21499,0.34951 -9.90875,0.3435 -10.46004,-0.00601M365.59252,228.33943c-0.04444,-42.79859 0.00601,-77.81552 0.1117,-77.81552c0.10569,0 1.28393,0.5609 2.61711,1.2467c3.26929,1.68269 10.02886,4.85228 15.95008,7.479c4.49077,1.99256 8.69568,3.94669 13.7065,6.36562l1.98295,0.95845l0.09128,96.57128l0.09008,96.57248h-17.11872h-17.11992l-0.1153,-26.78125c-0.06246,-14.72861 -0.15133,-61.79697 -0.19577,-104.59676M357.03976,159.73725c1.23589,-0.40596 1.50493,-0.39755 1.86765,0.05765c0.48283,0.60533 1.0137,3.29691 0.70983,3.60078c-0.2234,0.2234 -0.07567,0.18016 -16.6431,4.77301c-6.54698,1.8148 -12.98347,3.6188 -14.30343,4.00794c-3.37018,0.99568 -3.41341,0.98247 -3.91786,-1.12419c-0.5645,-2.35288 -1.21307,-2.00697 9.02357,-4.82586c19.64094,-5.40958 21.87852,-6.03413 23.26334,-6.48933M350.36787,170.95756c9.01756,-2.57748 8.74012,-2.58228 9.20853,0.19217c0.30267,1.79198 0.26543,1.82441 -3.25728,2.78406c-2.7228,0.74105 -9.66614,2.66635 -15.68945,4.34904c-1.48811,0.41557 -4.24695,1.17464 -6.13141,1.68629c-1.88446,0.51165 -4.45834,1.23709 -5.71945,1.61182c-3.37738,1.00529 -3.51791,0.96685 -4.01515,-1.10377c-0.49604,-2.06703 -0.37593,-2.39011 0.98367,-2.64834c0.54768,-0.10449 2.13188,-0.51405 3.52031,-0.9092c1.38843,-0.39635 4.87871,-1.37762 7.75525,-2.18233c2.87654,-0.80351 8.88184,-2.50421 13.34498,-3.77974M356.31913,178.66717c2.51622,-0.76748 2.84531,-0.58011 3.25728,1.86044c0.30747,1.8172 0.18016,1.93251 -3.09033,2.79967c-1.48091,0.39275 -3.90945,1.05693 -5.39757,1.4761c-1.48691,0.41917 -3.5155,0.97286 -4.50758,1.23109c-0.99208,0.25823 -4.48116,1.22748 -7.75525,2.1523c-3.27289,0.92602 -7.41175,2.09345 -9.19652,2.59429c-1.78598,0.50084 -3.45425,0.97766 -3.70888,1.05813c-0.50445,0.16214 -0.97646,-0.83594 -1.3572,-2.86093c-0.17656,-0.94283 -0.1093,-1.33918 0.24742,-1.45208c0.26904,-0.08528 1.38242,-0.40236 2.47418,-0.70622c1.95292,-0.54408 4.85709,-1.3632 9.64812,-2.7228c1.33918,-0.38074 5.76149,-1.60942 9.82828,-2.73121c4.06679,-1.12179 8.36779,-2.33606 9.55804,-2.69878M351.45003,189.36501c3.86862,-1.07855 7.14871,-1.89407 7.29044,-1.8124c0.30267,0.17295 1.00048,2.55826 1.00289,3.42903c0.0024,0.6834 0.09248,0.65097 -8.47348,3.02187c-3.37258,0.93443 -10.34714,2.89456 -15.49969,4.35625c-11.13864,3.16119 -10.45403,3.09513 -10.96809,1.05573c-0.51766,-2.05501 -0.50925,-2.72521 0.03243,-2.72521c0.38674,0 10.92004,-2.86573 17.23762,-4.68894c1.28994,-0.37233 5.50927,-1.55898 9.37788,-2.63633M351.26987,198.87021c8.02068,-2.30604 7.84533,-2.31564 8.30654,0.41316c0.34711,2.05381 2.264,1.33438 -19.48841,7.32287c-3.37138,0.92962 -7.79849,2.16191 -9.83549,2.73962c-5.00482,1.41845 -4.97119,1.42326 -5.49725,-0.77228c-0.54888,-2.28922 -1.64906,-1.72833 9.60248,-4.89672c5.33391,-1.50253 12.94383,-3.66564 16.91213,-4.80664M358.12192,206.26994c0.60894,-0.17656 0.85996,0.13092 1.2479,1.52415c0.76988,2.77565 1.52895,2.33246 -9.00195,5.26185c-8.12277,2.2604 -15.25467,4.25536 -19.64215,5.49725c-5.61015,1.5878 -5.44201,1.60462 -5.97287,-0.61254c-0.57531,-2.39612 -0.48163,-2.44536 9.20373,-4.92435c0.39755,-0.10089 2.58829,-0.71343 4.8691,-1.3596c2.28202,-0.64617 7.4754,-2.09945 11.54219,-3.22845c4.06679,-1.1302 7.55587,-2.10065 7.75405,-2.15831M353.07266,217.0879c5.66901,-1.61543 5.82514,-1.61423 6.29356,0.07086c0.59092,2.13068 0.48523,2.52583 -0.7927,2.93299c-1.05934,0.3375 -23.49995,6.69471 -29.6662,8.40382c-3.68966,1.0221 -3.51911,1.06774 -4.10162,-1.07375c-0.63536,-2.33486 -0.72424,-2.25319 3.7413,-3.47827c7.45378,-2.043 17.51987,-4.85709 24.52566,-6.85565M357.58144,225.20226c1.12539,-0.36993 1.65866,0.2222 1.99496,2.21355c0.28225,1.67188 0.13212,1.86765 -1.8148,2.36369c-0.7939,0.20178 -3.87702,1.05213 -6.85325,1.88807c-2.97503,0.83714 -7.76366,2.16071 -10.6402,2.9402c-2.87534,0.78069 -7.23519,1.99256 -9.68775,2.69278c-5.0961,1.45689 -5.27866,1.43767 -5.82635,-0.59453c-0.54528,-2.02379 -0.38434,-2.27 1.85804,-2.83811c1.06414,-0.26904 4.93756,-1.34158 8.6068,-2.3817c3.67044,-1.04012 10.00003,-2.81409 14.06682,-3.94068c4.06679,-1.12659 7.79969,-2.18113 8.29573,-2.34327M357.58144,234.58375c1.17944,-0.37353 1.34519,-0.24862 1.78838,1.34279c0.49364,1.77997 0.47202,2.59549 -0.07567,2.76604c-0.62936,0.19817 -4.9772,1.41845 -8.20565,2.30484c-1.48691,0.40836 -4.73338,1.30555 -7.21357,1.99376c-2.47899,0.68821 -6.69952,1.84963 -9.37668,2.57988c-2.67837,0.73024 -5.73867,1.589 -6.80161,1.90969c-2.23397,0.67259 -2.65795,0.40115 -3.10714,-1.99016c-0.3351,-1.78358 -2.42374,-1.07015 26.68036,-9.12326c2.97503,-0.82393 5.81554,-1.62624 6.31157,-1.78357M356.8596,244.12017c1.37161,-0.37833 1.68989,-0.36632 2.04781,0.07927c0.5621,0.69782 0.99568,3.34255 0.60533,3.68846c-0.28825,0.25462 -31.62513,9.06681 -33.77142,9.49679c-0.52366,0.10449 -1.56378,-3.63441 -1.1278,-4.05238c0.25703,-0.24622 14.32865,-4.26737 32.24608,-9.21213M355.05681,254.04693c3.88783,-1.1314 4.08601,-1.06534 4.51959,1.50133c0.31468,1.86164 0.55009,1.72352 -5.96206,3.50229c-3.07472,0.83954 -6.64547,1.83042 -7.93541,2.20154c-1.28994,0.37233 -5.67141,1.589 -9.7382,2.70479c-4.06679,1.11458 -8.09034,2.25439 -8.9419,2.53063c-1.75115,0.5681 -2.19434,0.06366 -2.34927,-2.67236l-0.07086,-1.25391l6.13262,-1.71151c3.37138,-0.94163 9.45835,-2.63272 13.52514,-3.75932c4.06679,-1.12539 8.93589,-2.4946 10.82036,-3.04349M355.59729,263.29508c2.93779,-0.87317 3.33895,-0.7927 3.76893,0.75186c0.7927,2.85612 1.31396,2.54385 -8.72931,5.24383c-5.00842,1.34759 -12.67119,3.42663 -17.02984,4.62048c-8.79296,2.40933 -8.50951,2.41773 -9.01636,-0.28225c-0.29786,-1.589 -0.14413,-1.74874 2.33246,-2.41053c1.99136,-0.53207 8.03269,-2.19914 17.94385,-4.95197c2.92578,-0.81192 6.13141,-1.69229 7.12349,-1.95653c0.99208,-0.26303 2.61471,-0.72064 3.60679,-1.0149M353.97466,273.04411c5.06848,-1.40044 5.15615,-1.38122 5.60055,1.2491c0.33149,1.96253 2.88255,1.02571 -20.92968,7.68559c-6.14943,1.71992 -11.63347,3.27169 -12.18716,3.44945c-0.89359,0.28585 -1.04732,0.21379 -1.37161,-0.64017c-0.74946,-1.96974 -0.59452,-3.42302 0.39395,-3.71128c1.63104,-0.47442 19.24459,-5.46603 21.64071,-6.13382c1.28994,-0.35912 4.37306,-1.21307 6.85325,-1.89888M355.23697,282.17337c3.40381,-1.00889 3.69686,-0.95725 4.15447,0.74586c0.66539,2.46698 0.5705,2.55706 -3.97791,3.80736c-2.27961,0.62695 -8.0399,2.22917 -12.8009,3.55994c-4.761,1.33078 -10.57414,2.95101 -12.91981,3.59958l-4.26377,1.17824l-0.35431,-0.93082c-0.92241,-2.42494 -0.62936,-3.43744 1.1278,-3.89384c2.50421,-0.64977 26.59508,-7.34328 29.03444,-8.06632M356.8596,291.0372c1.9289,-0.54768 2.33366,-0.24622 2.7168,2.02259c0.28225,1.67188 0.13212,1.86645 -1.8148,2.36489c-1.64065,0.42037 -12.04544,3.2801 -23.95996,6.58662c-8.99354,2.4958 -8.69448,2.50301 -9.21093,-0.24862c-0.32068,-1.71151 -0.53207,-1.59621 6.48092,-3.52511c3.37258,-0.92842 6.86166,-1.90849 7.75405,-2.17993c0.89359,-0.27144 4.95077,-1.40884 9.01756,-2.52703c4.06679,-1.11819 8.12397,-2.23998 9.01636,-2.4934M353.07266,301.4624c6.05695,-1.72953 6.04734,-1.73073 6.50374,0.97406c0.32068,1.89527 0.73265,1.68509 -7.94622,4.06079c-4.16648,1.13981 -8.87223,2.44896 -10.46004,2.90897c-1.5866,0.46001 -4.50878,1.27312 -6.49173,1.8076c-1.98415,0.53567 -4.6385,1.27913 -5.89961,1.65506c-3.37738,1.00409 -3.51791,0.96565 -4.01515,-1.10498c-0.43238,-1.80399 -0.30267,-2.54144 0.4492,-2.54144c0.36873,0 13.10717,-3.54793 27.8598,-7.76005M356.31913,309.9491c2.53063,-0.75907 2.56547,-0.74826 3.05069,0.99928c0.65338,2.35408 0.55849,2.53063 -1.6983,3.15759c-1.14101,0.31708 -3.21043,0.902 -4.59886,1.29955c-1.38843,0.39755 -3.33655,0.94523 -4.32742,1.21788c-2.00097,0.55009 -5.75668,1.61062 -9.46796,2.67236c-14.70459,4.20732 -13.95272,4.10282 -14.47518,2.02979c-0.62936,-2.50061 -0.64737,-2.47899 2.75403,-3.4014c1.73553,-0.47082 4.77782,-1.30675 6.76197,-1.85924c1.98295,-0.55249 5.22942,-1.44728 7.21357,-1.99016c7.48861,-2.04541 12.69521,-3.49869 14.78746,-4.12564M356.8596,319.16243c1.9241,-0.59092 2.32405,-0.29306 2.7156,2.02018c0.30267,1.79318 0.43358,1.68509 -3.34135,2.73001c-1.73914,0.48042 -5.10811,1.41845 -7.48861,2.08504c-2.3805,0.66539 -6.35721,1.77397 -8.8374,2.46338c-2.47899,0.68941 -6.59382,1.83642 -9.14247,2.54865c-5.74467,1.60582 -5.47804,1.62023 -5.96327,-0.30627c-0.60654,-2.41053 -0.54648,-2.57027 1.1302,-2.97623c1.33678,-0.32429 9.60248,-2.59429 17.40217,-4.77782c1.38843,-0.38914 4.63489,-1.28874 7.21357,-1.99856c2.57868,-0.70983 5.41919,-1.51454 6.31157,-1.78838M351.26987,330.0116c3.76893,-1.08095 6.96855,-1.98055 7.11028,-1.99977c0.41437,-0.05525 0.96325,1.20106 1.21547,2.78286l0.23421,1.4665l-1.93491,0.55369c-1.06534,0.30507 -4.61447,1.29594 -7.88737,2.20154c-3.27409,0.9056 -10.0817,2.79247 -15.12856,4.1917c-10.18379,2.82369 -9.77183,2.82009 -10.28829,0.06486c-0.32429,-1.72833 -0.9056,-1.46529 10.08771,-4.55803c5.35553,-1.50613 12.82252,-3.6236 16.59145,-4.70335M350.90835,339.55164c8.42904,-2.36969 8.19964,-2.3805 8.66685,0.38554c0.3375,1.99856 2.06222,1.362 -20.92968,7.71321c-2.3805,0.65818 -6.1134,1.69109 -8.29573,2.29523c-5.16456,1.43046 -5.06247,1.43887 -5.5477,-0.48763c-0.54048,-2.1463 -0.50805,-2.72521 0.15013,-2.72521c0.30507,0 2.45497,-0.54648 4.77902,-1.21427c2.32405,-0.66779 6.33559,-1.80399 8.91427,-2.52583c2.57868,-0.72064 8.09755,-2.2688 12.26283,-3.44104M352.35202,348.58481c6.53737,-1.82561 6.54578,-1.82561 7.01419,-0.13932c0.75787,2.73121 0.95364,2.59429 -6.65388,4.62048c-1.98415,0.52727 -8.79296,2.40332 -15.13216,4.16648c-6.3392,1.76316 -11.71635,3.20563 -11.95055,3.20563c-0.39155,0 -1.23109,-2.53424 -1.23109,-3.71608c0,-0.35672 1.93251,-1.03291 6.40285,-2.24238c3.52031,-0.95124 7.1319,-1.93131 8.02429,-2.17512c0.89359,-0.24502 3.16479,-0.86476 5.04926,-1.37762c1.88567,-0.51285 5.69903,-1.56738 8.47709,-2.34207" fill="#7aded4" fill-rule="evenodd"/><path d="M109.99841,57.55822c0.26303,-1.2479 0.30867,-1.21187 6.77759,5.50086c4.96639,5.15135 7.72882,7.50543 6.52897,5.56451c-1.04012,-1.68269 10.03606,-1.2479 14.7202,0.57771c2.10546,0.82032 2.36489,0.72904 7.2448,-2.54985c2.52103,-1.6947 4.74059,-2.98343 4.93276,-2.86453c0.20058,0.12371 0.34951,2.56306 0.34951,5.73146v5.51647l2.16071,2.44776c4.47635,5.07088 6.4593,10.99211 5.87319,17.54149l-0.18136,2.02859l-1.34158,-0.52727l-1.34038,-0.52606l0.72304,-1.46169c2.92578,-5.91402 -2.36008,-16.94216 -8.38941,-17.50306c-6.97216,-0.64857 -7.71201,12.75166 -1.0197,18.47952l1.42446,1.22028l-1.56979,0.40236c-0.86356,0.221 -1.77277,0.47082 -2.02018,0.55369c-0.24862,0.08287 -0.4516,-0.06246 -0.4516,-0.32309c0,-2.2652 -9.77663,-3.15399 -10.35554,-0.94163c-0.23421,0.89359 -0.08287,0.9032 -3.48067,-0.2282l-2.83811,-0.94523l0.91281,-0.76748c6.18306,-5.2054 0.51165,-19.34308 -7.76125,-19.34308c-6.66348,0 -8.97192,11.81724 -3.3966,17.39136c0.41437,0.41437 0.17535,0.50445 -1.53375,0.57291c-8.46988,0.3399 -13.06274,12.07907 -7.79008,19.91358l1.25631,1.86645l-2.1523,-1.86525c-5.78911,-5.01443 -11.38125,-16.56383 -8.24408,-17.02503c1.04132,-0.15374 1.31036,-1.0173 0.31708,-1.0173c-0.98967,0 -1.23709,-0.71463 -0.93803,-2.70959c0.25823,-1.72352 0.65578,-1.96974 1.68269,-1.04012c1.25631,1.1374 1.52775,0.31228 0.3411,-1.03892c-1.11098,-1.26472 -1.14461,-1.39083 -0.72904,-2.68677c1.30195,-4.0716 5.34592,-9.93758 7.71441,-11.19268c0.75907,-0.40115 1.17824,-3.14558 1.99977,-13.07114c0.221,-2.67837 0.47922,-5.23422 0.57411,-5.68102M85.44872,87.36254c3.37018,-1.48211 11.72235,2.96182 11.72235,6.23711c0,1.31756 -0.82393,1.33438 -5.62577,0.1165c-4.12204,-1.04492 -4.33943,-1.06894 -3.78935,-0.40596c0.47322,0.5705 3.47347,1.45328 6.96375,2.04661l2.41773,0.41196l0.227,1.67908c0.12611,0.92362 0.30627,1.96253 0.40236,2.30964c0.2306,0.83474 0.01802,0.79991 -1.67788,-0.27024c-1.34279,-0.84795 -4.08481,-1.84723 -7.39373,-2.69638c-5.61496,-1.44127 -7.69159,-7.4718 -3.24647,-9.42833M71.34587,95.93211c0.41677,-0.09008 1.32597,-0.10089 2.02018,-0.02162c0.69421,0.07807 1.52775,0.14413 1.85204,0.14653c0.37233,0.0024 0.87557,0.70983 1.36681,1.9205c0.42758,1.05333 1.51093,2.75403 2.40813,3.77974l1.62984,1.86285l-0.78549,0.81912c-0.43118,0.4504 -1.0173,1.3608 -1.30195,2.02259c-0.59933,1.39683 -0.72544,1.37521 -3.64282,-0.60774c-6.27794,-4.26857 -7.95583,-8.96352 -3.54673,-9.92196M85.26856,102.78296c5.80232,-1.10017 10.49967,3.58757 7.34929,7.33248c-3.81097,4.528 -13.48431,3.27289 -13.4795,-1.74995c0.0024,-2.54505 2.6027,-4.91234 6.13021,-5.58253M94.56717,107.57279l0.17415,-1.80279l2.73602,0.10449l2.73602,0.10449l1.37762,1.97454c1.53856,2.20515 1.41485,2.45857 -1.22628,2.50902c-7.84773,0.15133 -11.92173,7.09346 -4.79103,8.16361c3.08312,0.46241 12.71803,-0.908 14.02719,-1.99616c0.26183,-0.21619 1.00649,0.06125 2.12828,0.7903c2.16912,1.41125 2.1523,1.42085 -4.73578,2.78886c-13.26932,2.63633 -30.11179,2.25319 -36.02942,-0.81912c-2.718,-1.41125 -3.59718,-4.87511 -1.77397,-6.98777c1.31516,-1.52775 5.80112,-1.16383 14.2722,1.15422c5.08889,1.39323 10.68704,-1.62263 11.10501,-5.98368M166.63681,115.19111c3.49629,-1.04612 5.74948,0.52847 5.47564,3.82538c-0.51405,6.20228 -8.58518,7.91499 -19.44517,4.12564l-1.93491,-0.675l1.80279,-0.80591c2.30604,-1.02931 6.26713,-3.63801 7.25681,-4.77902c0.61975,-0.71463 1.2419,-0.92842 3.2813,-1.129c1.38362,-0.13692 2.98704,-0.38914 3.56355,-0.5621M372.36289,119.05373c3.8482,-3.93588 4.33463,-4.40069 4.33463,-4.14126c0,0.05285 -1.90728,1.96013 -4.23854,4.23734l-4.23734,4.14246l4.14126,-4.23854M346.03925,117.52117c-1.07735,-1.09056 -1.87726,-1.98415 -1.77877,-1.98415c0.09969,0 1.06174,0.89359 2.14029,1.98415c1.07735,1.09056 1.87726,1.98415 1.77877,1.98415c-0.09969,0 -1.06294,-0.89359 -2.14029,-1.98415M351.08851,122.50317c0,-0.27865 0.29786,-0.03363 1.28513,1.05934l1.05934,1.17224l-1.17224,-1.05934c-0.64377,-0.58251 -1.17224,-1.10978 -1.17224,-1.17224" fill="#f8a21d" fill-rule="evenodd"/><path d="M307.89835,2.51962c1.44488,-0.21019 9.31423,0.03243 9.57726,0.29546c0.47322,0.47322 -0.3375,0.53327 -2.10186,0.15494c-1.9241,-0.41196 -6.83884,-0.28465 -8.01708,0.20898c-0.36632,0.15374 -0.63056,0.10689 -0.63056,-0.1117c0,-0.20778 0.52727,-0.4528 1.17224,-0.54768M305.49503,3.31472c0.12131,-0.19697 0.31228,-0.26543 0.42518,-0.15253c0.25583,0.25462 0.32309,0.20538 -2.20635,1.60702c-1.16143,0.64257 -2.19794,1.08216 -2.30484,0.97526c-0.10689,-0.10689 0.23421,-0.35672 0.75787,-0.55609c0.52366,-0.19817 0.95244,-0.51525 0.95244,-0.70262c0,-0.18737 0.48403,-0.44679 1.07735,-0.57771c0.59332,-0.12971 1.17704,-0.39755 1.29835,-0.59332M318.1314,3.2955c0.1165,-0.18977 0.37473,-0.18016 0.61855,0.02162c0.2306,0.18977 1.02811,0.45881 1.77156,0.59813c0.74346,0.13932 1.35239,0.41437 1.35239,0.61134c0,0.19817 -0.2258,0.27264 -0.50324,0.16695c-0.27745,-0.10689 -1.16383,-0.39155 -1.97214,-0.63416c-0.80711,-0.24141 -1.37762,-0.58612 -1.26712,-0.76387M325.80858,6.61163c-2.06462,-0.99568 -3.34856,-1.71872 -2.85252,-1.60702c0.96805,0.21859 6.88568,3.13837 6.71153,3.31253c-0.05765,0.05765 -1.79438,-0.70983 -3.85901,-1.70551M330.59001,8.76033c-1.14101,-0.71944 1.08456,0.04084 3.72809,1.27312c2.87053,1.33918 4.60487,2.10426 4.8691,2.1475c0.09849,0.01681 0.66659,0.21619 1.26231,0.44319c2.62792,1.00289 2.25439,0.87677 5.7699,1.94572c3.9587,1.20346 8.28371,2.05982 12.98467,2.56907c2.3805,0.25823 3.76533,0.52486 3.07592,0.59092c-6.19267,0.59933 -24.92201,-4.70215 -31.68998,-8.96952M297.46115,9.76802c0.12371,-0.34711 0.39635,-0.63056 0.60533,-0.63056c0.21019,0 0.1165,0.40236 -0.21019,0.902c-0.53087,0.80951 -1.1278,1.30075 -0.76508,0.63056c0.07927,-0.14893 0.24622,-0.55489 0.36993,-0.902M295.85774,12.97125c0.32429,-0.6738 0.64377,-1.17584 0.71223,-1.11458c0.2306,0.20898 -0.7951,2.65314 -1.04732,2.49701c-0.13932,-0.08648 0.01201,-0.70742 0.3351,-1.38242M295.09386,15.47666c0.14893,-0.15013 0.32068,-0.02282 0.38314,0.28225c0.08047,0.39275 0.66299,0.59452 1.98415,0.68701l1.87005,0.13212l-2.25319,0.06726c-2.18353,0.06366 -2.8297,-0.31588 -1.98415,-1.16863M300.62352,16.48675c-0.27624,-0.25102 2.30003,-0.09729 3.75812,0.2234c1.10858,0.24382 0.85756,0.27024 -1.08216,0.1153c-1.38843,-0.1117 -2.59309,-0.26423 -2.67596,-0.3387M308.52892,17.97367c-0.69421,-0.26664 -1.0185,-0.49123 -0.72184,-0.49724c0.29786,-0.00601 1.02811,0.21139 1.62383,0.48403c1.39323,0.63776 0.74466,0.64737 -0.902,0.01321M366.77916,17.76106c1.5866,-0.10089 3.1684,-0.21619 3.5155,-0.25583c0.99328,-0.1141 0.80711,0.10089 -2.16311,2.4934c-3.55034,2.85852 -3.69686,2.96902 -3.69686,2.75764c0,-0.09608 1.22148,-1.1302 2.7144,-2.29763l2.7144,-2.12468l-2.98464,-0.19457l-2.98584,-0.19457l2.88615,-0.18376M313.96973,20.09233c-0.08287,-0.07447 -0.03483,-0.13452 0.1081,-0.13452c0.38674,0 2.38651,1.07255 2.38651,1.28033c0,0.16214 -2.12348,-0.81432 -2.4946,-1.14581M321.8739,24.45579c0,-0.09969 0.97406,0.31107 2.16431,0.9116c1.19025,0.60173 2.16431,1.17344 2.16431,1.27312c0,0.09969 -0.97406,-0.31107 -2.16431,-0.9116c-1.19025,-0.60173 -2.16431,-1.17344 -2.16431,-1.27312M327.28469,27.35155c-0.49604,-0.28345 -0.73985,-0.51526 -0.54168,-0.51526c0.19817,0 0.76628,0.2318 1.26231,0.51526c0.49604,0.28345 0.73985,0.51525 0.54168,0.51525c-0.19817,0 -0.76628,-0.2318 -1.26231,-0.51525M353.97466,28.79402c0.49604,-0.28345 1.06414,-0.51045 1.26231,-0.50445c0.19818,0.0048 -0.16695,0.27264 -0.81192,0.59332c-0.64497,0.32068 -1.17224,0.71583 -1.17224,0.87798c0,0.43839 -19.74664,0.37353 -20.01688,-0.06486c-0.14653,-0.23661 3.21524,-0.36512 9.80666,-0.37353c8.01588,-0.01081 10.21142,-0.1165 10.93205,-0.52847M129.7234,87.58474c-0.0036,-0.7939 0.06606,-1.16022 0.15614,-0.81552c0.09128,0.3447 0.09368,0.99448 0.00721,1.44247c-0.08528,0.4492 -0.15974,0.16695 -0.16334,-0.62695M155.69156,90.47089c-0.0036,-0.7939 0.06726,-1.16143 0.15734,-0.81672c0.09008,0.3447 0.09368,0.99448 0.00721,1.44367c-0.08648,0.448 -0.15974,0.16575 -0.16455,-0.62695M137.3021,123.01002c-0.54888,-0.08287 -0.18616,-0.15253 0.80591,-0.15614c0.99208,-0.0024 1.44007,0.06606 0.99688,0.15133c-0.44319,0.08528 -1.25511,0.08768 -1.80279,0.0048M362.6307,151.42111c2.81048,-1.11338 2.52463,-10.45403 2.52463,82.54049c0,45.69195 0.1081,92.84198 0.24021,104.77692l0.23901,21.69956h-18.69451c-10.28108,0 -18.61884,-0.07447 -18.52756,-0.16575c0.14173,-0.14293 8.05551,-2.40813 15.82397,-4.5292c1.28874,-0.35311 4.45353,-1.2407 7.03341,-1.97454c2.57868,-0.73385 5.33751,-1.49532 6.13141,-1.69109c2.97743,-0.73625 3.07351,-0.85275 2.45977,-2.95341c-0.81552,-2.78766 -0.32068,-2.74923 -8.05071,-0.62095c-1.48811,0.40956 -3.67885,0.99568 -4.8691,1.30195c-1.19025,0.30747 -6.7896,1.8136 -12.44299,3.34856l-10.27988,2.79006l0.01922,1.07495c0.01081,0.59212 0.14533,1.60342 0.29906,2.24718l0.27985,1.17224h-2.16311h-2.16431l-0.04324,-97.91767l-0.04204,-97.91767l1.46409,-0.23421c0.80591,-0.12851 1.55417,-0.37833 1.66227,-0.55369c0.1081,-0.17535 0.3375,-0.2318 0.50925,-0.12611c0.17175,0.10689 0.85035,-0.1081 1.50853,-0.47562c0.65698,-0.36873 1.39803,-0.60173 1.64665,-0.51886c0.24742,0.08407 0.4504,-0.0024 0.4504,-0.19217c0,-0.18977 0.81192,-0.4516 1.80279,-0.58372c0.99208,-0.13092 1.80399,-0.40596 1.80399,-0.61134c0,-0.20898 0.31828,-0.27144 0.72184,-0.14413c0.41316,0.13212 0.72064,0.06486 0.72064,-0.15614c0,-0.21139 0.47802,-0.38434 1.06054,-0.38434c0.58372,0 1.16263,-0.16455 1.28754,-0.36632c0.12491,-0.20178 0.37833,-0.27384 0.5621,-0.15974c0.18496,0.1141 0.3363,0.05405 0.3363,-0.13332c0,-0.18737 0.44679,-0.42758 0.99208,-0.53327c1.39203,-0.27144 1.40644,-0.27504 8.02429,-2.3745c3.27409,-1.03772 8.30533,-2.61831 11.18187,-3.5107c2.87654,-0.89359 5.79752,-1.84843 6.49173,-2.12348M359.61243,160.98275c-0.57411,-1.9265 -0.97766,-2.0394 -4.01515,-1.12179c-1.19025,0.35912 -3.54313,1.0173 -5.22942,1.46289c-1.68629,0.44559 -4.20251,1.1314 -5.59094,1.52415c-2.79727,0.7891 -4.72497,1.32357 -9.01636,2.4934c-4.67573,1.27553 -7.80689,2.1535 -9.86551,2.76484l-1.9301,0.57291l0.21859,1.3608c0.58251,3.64882 0.55969,3.64162 6.48212,1.96734c1.61182,-0.4552 4.71536,-1.32477 6.89769,-1.93131c20.52492,-5.70384 22.54271,-6.31998 22.5367,-6.88928c-0.0024,-0.31948 -0.2222,-1.31156 -0.48763,-2.20395M359.67369,170.19609c-0.63776,-2.38411 2.3829,-2.95581 -23.87108,4.51959c-12.62195,3.59357 -12.07787,3.32454 -11.45692,5.65579c0.71823,2.69638 0.24622,2.64714 7.08626,0.73625c6.19987,-1.73193 13.87705,-3.84219 18.75576,-5.15495c1.98295,-0.53327 4.33703,-1.19025 5.22942,-1.45809c0.89239,-0.26784 2.31324,-0.66539 3.15639,-0.88158c1.71752,-0.44199 1.8148,-0.74466 1.10017,-3.41702M359.84784,180.37267c-0.67139,-2.34927 -1.08336,-2.78166 -2.2664,-2.3745c-0.49604,0.17055 -2.6063,0.78189 -4.68894,1.3596c-5.19339,1.43887 -10.28468,2.86813 -17.94385,5.03725c-1.33918,0.37954 -4.34183,1.21547 -6.67309,1.85804c-3.77013,1.04012 -4.23734,1.25631 -4.23734,1.96253c0,1.0221 0.70022,3.12516 1.21908,3.66083c0.36873,0.37954 6.78239,-1.23229 15.91285,-3.99953c3.53112,-1.07014 13.17804,-3.77493 16.61427,-4.65771c2.68197,-0.68941 2.68077,-0.68701 2.06342,-2.84651M359.73494,189.25452c-0.5645,-2.35648 -0.54168,-2.35288 -5.76029,-0.87437c-1.28994,0.36512 -4.5352,1.26472 -7.21357,1.99856c-2.67837,0.73265 -5.92483,1.62624 -7.21357,1.98295c-1.28994,0.35792 -4.5352,1.25391 -7.21357,1.99256c-2.67837,0.73865 -5.59934,1.54576 -6.49293,1.79318c-1.57939,0.43839 -1.62143,0.48763 -1.57939,1.84963c0.12251,3.93467 0.17656,3.94308 9.15448,1.39803c3.07472,-0.87197 9.4043,-2.65434 14.06562,-3.9611c4.66252,-1.30796 9.32023,-2.61591 10.35194,-2.90897c2.34687,-0.66659 2.47418,-0.88518 1.90128,-3.27049M359.77578,198.93386c-0.75547,-2.55586 -1.03411,-2.6099 -5.98128,-1.16503c-1.98415,0.58011 -9.36587,2.68917 -16.40409,4.68654c-14.44756,4.10282 -13.66086,3.7377 -13.04472,6.04974c0.72184,2.70719 0.06846,2.69998 9.61089,0.09248c1.5878,-0.43358 3.69686,-1.00529 4.68894,-1.27072c0.99208,-0.26423 3.02067,-0.82513 4.50878,-1.2443c4.13885,-1.16623 6.97576,-1.94332 11.90251,-3.26088c5.68462,-1.51814 5.47203,-1.34399 4.71897,-3.88783M358.86778,205.98289c-0.46961,-0.32309 -0.41557,-0.32909 -2.18833,0.26423c-1.43287,0.48042 -5.19939,1.583 -8.65604,2.53424c-0.99208,0.27264 -2.97983,0.82873 -4.4187,1.23589c-1.43767,0.40596 -3.71008,1.04853 -5.04926,1.42686c-1.33918,0.37833 -4.95077,1.37281 -8.02549,2.20995c-3.07472,0.83714 -5.81433,1.5854 -6.08698,1.66347c-1.12419,0.31948 0.3399,5.0913 1.50012,4.89192c0.3375,-0.05765 4.87511,-1.33078 10.0841,-2.8297c5.209,-1.49892 10.04687,-2.86453 10.74949,-3.03628c1.75235,-0.42638 12.28565,-3.46866 13.0243,-3.76172c0.66178,-0.26183 -0.10209,-4.02596 -0.93322,-4.59886M359.42987,216.43692c-0.50565,-1.29354 -0.53087,-1.29114 -6.53737,0.43719c-1.28994,0.36993 -4.5352,1.26712 -7.21357,1.99136c-6.04013,1.63344 -8.69688,2.36489 -14.42714,3.97191c-2.48019,0.69541 -5.13694,1.43887 -5.90441,1.65266c-1.51934,0.42277 -1.66587,1.39083 -0.61614,4.0764c0.5669,1.44848 -1.66587,1.93491 22.93185,-5.00122c5.15735,-1.45448 10.08651,-2.8333 10.95367,-3.06391c1.71151,-0.454 1.88567,-1.32477 0.81312,-4.06439M358.86177,224.73865c-0.46241,-0.32309 -0.41076,-0.33029 -2.18233,0.26664c-1.06054,0.35792 -25.60301,7.31446 -32.0527,9.08602c-0.73745,0.20298 -0.69662,1.80159 0.09849,3.83499c0.4516,1.15422 0.58131,1.14941 5.26425,-0.18016c2.87174,-0.81552 4.89552,-1.37281 9.01636,-2.48379c1.5878,-0.42878 3.94068,-1.07495 5.23062,-1.43647c1.28874,-0.36272 4.5352,-1.25271 7.21357,-1.97695c2.67837,-0.72544 5.72065,-1.55297 6.76197,-1.83762c1.52054,-0.41677 1.89407,-0.66899 1.89407,-1.27913c0,-1.10498 -0.80351,-3.68485 -1.2443,-3.99353M359.69771,235.96737c-0.5645,-1.6971 -1.03892,-2.08985 -2.11627,-1.75115c-1.91329,0.60293 -10.03967,2.9414 -12.44299,3.58156c-1.38963,0.36993 -3.7425,1.02811 -5.23062,1.46289c-1.48811,0.43478 -3.51671,1.00168 -4.50878,1.25871c-0.99087,0.25703 -3.34495,0.89479 -5.22942,1.41605c-1.88446,0.52246 -4.03556,1.11218 -4.77902,1.31036c-1.51934,0.40476 -1.7043,1.19025 -0.84194,3.57916c0.66899,1.85324 0.4552,1.88687 15.179,-2.36129c0.99208,-0.28705 3.58877,-1.0197 5.7711,-1.62864c3.89744,-1.08936 5.69543,-1.5854 11.63227,-3.21043c3.27649,-0.89599 3.41822,-1.09897 2.56667,-3.65723M359.78419,245.95299c-0.40236,-1.79559 -1.11579,-2.98103 -1.53976,-2.55706c-0.09488,0.09488 -1.37882,0.48883 -2.85252,0.87437c-1.4737,0.38554 -5.11412,1.37521 -8.09034,2.19914c-2.97503,0.82513 -6.22149,1.71752 -7.21357,1.98295c-1.59621,0.42878 -3.22245,0.88038 -10.45884,2.90537c-0.99208,0.27744 -2.53424,0.69181 -3.42663,0.92001c-2.2652,0.58011 -2.35048,0.72184 -1.83282,3.03388c0.5621,2.51142 0.87918,2.63393 4.30941,1.66947c4.21092,-1.18425 9.70457,-2.70839 16.45933,-4.56763c16.78362,-4.61928 15.21263,-3.92627 14.64573,-6.46051M359.69771,254.72313c-0.71463,-2.1499 -0.73745,-2.1511 -6.80521,-0.43598c-9.31302,2.63272 -20.90806,5.88159 -24.3455,6.82082c-1.78598,0.48763 -3.52992,0.97406 -3.87822,1.08095c-0.73865,0.227 -0.7963,1.129 -0.20178,3.11675c0.55969,1.86645 0.82753,1.9301 4.15567,0.98967c4.03676,-1.13981 7.5871,-2.13549 9.66253,-2.71079c24.53647,-6.7956 22.39498,-5.90922 21.41251,-8.86143M359.39264,263.25667c-0.31948,-0.84074 -1.67548,-1.29955 -2.22196,-0.75186c-0.14653,0.14533 -6.85085,2.05381 -12.75406,3.6284c-0.99208,0.26423 -4.23854,1.15302 -7.21357,1.97454c-2.97623,0.82032 -6.05935,1.65146 -6.85325,1.84603c-3.89264,0.95484 -6.31157,1.85684 -6.31157,2.35408c0,1.16263 0.85035,3.80376 1.27793,3.9683c0.24982,0.09608 4.65051,-0.99208 9.77783,-2.41774c5.12733,-1.42566 9.64692,-2.66756 10.04447,-2.76244c0.39635,-0.09368 1.816,-0.48042 3.15519,-0.85996c1.33918,-0.37833 3.52992,-0.99448 4.8691,-1.36921c1.33918,-0.37353 3.46506,-0.97166 4.72377,-1.32957l2.29042,-0.64977l-0.21739,-1.3536c-0.1189,-0.74466 -0.37353,-1.76916 -0.5669,-2.27721M359.74215,273.58817c-0.80711,-2.6087 0.09608,-2.6003 -8.65364,-0.07807c-1.28874,0.37233 -4.77782,1.34999 -7.75405,2.17272c-9.74541,2.69398 -16.93015,4.71296 -18.16604,5.10571c-1.31156,0.41557 -1.43407,1.49292 -0.454,3.99713c0.51526,1.31756 0.72664,1.29715 8.0459,-0.77949c3.43503,-0.97406 10.14176,-2.85132 14.90276,-4.17248c14.09565,-3.90945 12.97986,-3.33294 12.07907,-6.24552M359.42987,282.08089c-0.50805,-1.29955 -0.74586,-1.27433 -8.16001,0.84314c-3.37258,0.96325 -7.99906,2.25439 -10.27988,2.86933c-2.28081,0.61494 -4.87751,1.33798 -5.7711,1.60822c-0.89239,0.26904 -2.51502,0.73745 -3.60679,1.03892c-1.09056,0.30147 -3.25848,0.9092 -4.81745,1.35119l-2.8345,0.80351l0.18256,1.28874c0.49364,3.47707 0.88638,3.68485 4.79463,2.54144c3.17681,-0.93082 5.45762,-1.5806 8.62602,-2.45857c12.71082,-3.52031 17.69883,-4.90873 19.96643,-5.55731l2.65434,-0.76027l-0.18256,-1.28754c-0.10089,-0.70863 -0.35792,-1.73553 -0.5717,-2.28081M359.78899,292.631c-0.71703,-2.34807 -1.19986,-2.50421 -4.55202,-1.4749c-1.19025,0.36632 -4.35505,1.26952 -7.03341,2.00697c-2.67837,0.73865 -5.96447,1.65146 -7.30365,2.02859c-1.33918,0.37713 -3.52992,0.99328 -4.8691,1.36921c-1.33918,0.37593 -4.50278,1.26952 -7.03221,1.98415c-2.52823,0.71463 -4.67813,1.29955 -4.77782,1.29955c-0.6786,0 0.41316,4.3022 1.16383,4.59045c0.26904,0.10329 1.98295,-0.2318 3.80976,-0.74346c11.38726,-3.19602 20.70628,-5.80473 23.51797,-6.58542c8.58758,-2.38411 7.85614,-1.9217 7.07665,-4.47515M359.67009,301.47319c-0.51646,-1.93611 -1.1326,-2.0418 -4.97479,-0.85516c-1.28874,0.39755 -3.15519,0.95004 -4.14726,1.22628c-11.53378,3.21644 -17.02143,4.7586 -21.19151,5.95486c-2.72881,0.78309 -5.06367,1.42326 -5.18738,1.42326c-0.30747,0 0.06246,2.46458 0.5621,3.7425c0.4492,1.14821 0.76147,1.15422 4.53641,0.08287c0.99208,-0.28225 4.48236,-1.2503 7.75525,-2.1511c13.44107,-3.70167 21.8569,-6.03173 22.45143,-6.21669c0.74346,-0.2306 0.7903,-0.98727 0.19577,-3.20683M359.7998,311.47444c-0.66899,-2.52103 -0.93322,-2.66515 -3.48067,-1.89647c-1.19025,0.35912 -4.03076,1.16983 -6.31157,1.80039c-6.20708,1.71511 -12.85015,3.56835 -15.68945,4.37546c-1.38963,0.39515 -3.37738,0.95364 -4.4187,1.2419c-1.04132,0.28705 -2.80328,0.7927 -3.91426,1.12419l-2.02018,0.60173l0.21859,1.3608c0.52967,3.31853 0.87918,3.56835 3.75452,2.68797c0.92962,-0.28465 2.90777,-0.85996 4.39588,-1.27793c1.48811,-0.41797 3.51671,-0.99208 4.50878,-1.27553c0.99088,-0.28345 2.939,-0.82393 4.32742,-1.20226c2.81409,-0.76387 10.63659,-2.9414 15.32433,-4.26497c3.81337,-1.07735 3.87342,-1.1374 3.30532,-3.27529M359.5692,320.04281c-0.46961,-1.36801 -1.08216,-1.59381 -2.88975,-1.06654c-2.43215,0.70983 -8.8338,2.46458 -14.24698,3.90465c-1.48691,0.39635 -4.08481,1.11458 -5.7711,1.59621c-1.68509,0.48163 -4.44513,1.2443 -6.13141,1.6947c-7.16072,1.91209 -7.05503,1.82922 -6.07857,4.72737c0.6762,2.00937 0.87677,2.13188 2.58228,1.5854c0.83233,-0.26664 6.22029,-1.80399 11.97217,-3.41582c5.75308,-1.61182 11.59624,-3.25968 12.98467,-3.66083c1.38843,-0.40115 3.41822,-0.97766 4.50878,-1.28153c4.38747,-1.21908 4.15807,-0.91521 3.06991,-4.08361M359.67369,329.61645c-0.41917,-1.56618 -0.7975,-2.00337 -1.55177,-1.79198c-0.19817,0.05525 -2.79487,0.76988 -5.7699,1.5878c-6.49173,1.78478 -7.93661,2.18953 -19.23378,5.39036c-10.20661,2.89215 -9.31182,2.38891 -8.74612,4.91834c0.58011,2.59189 0.38314,2.56667 6.69952,0.84795c2.97503,-0.81072 6.22149,-1.69109 7.21357,-1.95653c0.99208,-0.26664 3.34495,-0.91761 5.22942,-1.44728c1.88446,-0.52967 4.23854,-1.17584 5.23062,-1.43527c0.99087,-0.25943 3.34495,-0.89839 5.22942,-1.42085c1.88446,-0.52246 4.03556,-1.11098 4.77902,-1.31036c1.51934,-0.40476 1.61903,-0.76988 0.92001,-3.38219M358.86778,337.27082c-0.47562,-0.32789 0.52246,-0.5681 -8.13959,1.95533c-4.06679,1.18425 -8.85422,2.54985 -10.6402,3.03388c-1.78478,0.48403 -4.34183,1.20226 -5.67982,1.59501c-4.81025,1.41005 -7.33007,2.12588 -8.8374,2.51262c-1.7019,0.43599 -1.89167,0.99448 -1.11939,3.2873c0.6762,2.00817 0.87677,2.13188 2.58228,1.5854c2.35648,-0.75547 8.44706,-2.4874 16.48095,-4.68774c5.87439,-1.60942 9.36947,-2.58829 11.54219,-3.23446c0.89239,-0.26423 2.18593,-0.59933 2.87294,-0.74346c2.3805,-0.49844 2.52703,-0.73265 1.88567,-3.02427c-0.30987,-1.10858 -0.73625,-2.13428 -0.94764,-2.27961" fill="#e3f4f3" fill-rule="evenodd"/><path d="M341.74666,73.00026c6.53257,-1.16383 11.36083,0.38674 15.97891,5.13093l2.85372,2.93059l0.55009,-0.88638c5.36394,-8.63563 18.32218,-10.05648 25.61262,-2.80688c1.64185,1.63224 4.38267,5.90321 4.38267,6.82923c0,0.29546 0.20298,0.74105 0.4504,0.98847c0.77468,0.77468 0.60413,10.21022 -0.2318,12.85855c-1.93611,6.13141 -4.33823,9.39109 -14.08844,19.11608c-9.65773,9.63251 -11.7752,12.01541 -15.30151,17.22201c-1.49532,2.20755 -1.78718,2.16431 -3.68245,-0.54048c-2.48499,-3.54793 -6.0029,-7.39253 -14.93399,-16.32121c-9.17971,-9.1761 -11.27556,-11.87729 -13.49512,-17.37935c-0.41437,-1.02811 -0.75427,-2.21596 -0.75427,-2.63873c0,-0.42277 -0.17415,-1.09417 -0.38794,-1.49292c-0.62575,-1.17103 -0.51525,-8.1528 0.16094,-10.14536c2.2664,-6.67549 7.50543,-11.90491 12.88618,-12.86456M348.52304,74.80185c-10.49126,-2.41774 -19.73823,7.63754 -17.99909,19.57128c1.10257,7.56068 3.09393,10.55492 14.96281,22.49466c5.16456,5.19459 10.5261,10.90443 11.91452,12.68921c3.0555,3.92627 2.79247,3.90104 5.22942,0.49243c1.09176,-1.52655 6.28995,-7.16072 11.5518,-12.52106c12.39374,-12.62435 13.96113,-14.76824 15.50689,-21.21794c4.59766,-19.17854 -18.01351,-30.42887 -27.68445,-13.77496c-1.40764,2.42254 -1.94452,2.44056 -3.2825,0.1093c-2.22436,-3.87582 -6.17826,-6.91571 -10.19941,-7.84293" fill="#ff94dd" fill-rule="evenodd"/><path d="M109.4339,55.21615c0,-0.72664 0.96805,0.14533 6.36442,5.73026l5.82394,6.02812l6.25873,0.04804c5.68822,0.04444 6.53977,0.13692 9.32503,1.00769l3.06631,0.95845l5.15495,-3.42783c2.8357,-1.88446 5.28467,-3.34736 5.44321,-3.24887c0.15974,0.09729 0.38914,2.95821 0.51045,6.35721l0.2222,6.17826l1.42566,1.54697c4.23854,4.59766 6.25032,9.68175 6.37883,16.11583l0.08407,4.20491l1.46049,1.31876c0.80231,0.72544 1.81841,2.05862 2.25559,2.96422l0.7963,1.64425l3.64402,-0.16455c2.41894,-0.1105 4.03076,-0.36752 4.79704,-0.76628c1.29354,-0.6738 1.91089,-0.76147 1.91089,-0.27024c0,0.7879 -5.73146,2.19314 -8.9479,2.19314c-1.55177,0 -1.59621,0.03123 -1.41605,0.99208c0.10209,0.54648 0.07086,1.83282 -0.06726,2.85852c-0.30147,2.22797 -0.07447,2.39972 4.04397,3.0531c1.43046,0.227 2.75523,0.55129 2.9426,0.72184c0.5669,0.51165 -2.72521,0.3447 -4.63729,-0.23541c-2.16071,-0.65458 -3.09513,-0.681 -3.10955,-0.08528c-0.00721,0.24742 -0.39155,1.22508 -0.85516,2.17152c-1.04492,2.13188 -0.94283,2.19314 2.54505,1.52535c5.25704,-1.00649 7.39253,-0.28465 8.01708,2.70959c1.54697,7.41054 -7.87175,10.58255 -20.09975,6.76798l-4.09081,-1.27673l-2.0406,0.58251c-6.50134,1.85684 -21.56865,0.12731 -29.51847,-3.38819l-1.90368,-0.84194l-4.32021,1.06054c-20.51412,5.03365 -43.66336,2.57988 -43.66336,-4.62769c0,-4.44873 2.92578,-5.93564 8.92268,-4.5328c1.43527,0.3351 2.70479,0.51525 2.82009,0.39995c0.36272,-0.36392 -1.23829,-3.10234 -1.94572,-3.32694c-1.96253,-0.62335 -7.07184,-5.10931 -8.64764,-7.59311c-4.36105,-6.87367 -0.65938,-18.77498 5.14654,-16.54701c1.00529,0.38554 1.63825,2.16311 2.19554,6.17585c1.32717,9.55444 3.84339,13.30055 8.20084,12.20758c3.83859,-0.96325 6.77038,-0.48643 8.91187,1.44848c1.25391,1.1326 6.85686,1.97094 6.85686,1.02571c0,-2.33486 -4.67573,-5.57292 -10.09852,-6.99257c-5.13694,-1.34519 -7.20997,-3.25367 -7.21237,-6.64066c-0.0048,-5.95366 7.21717,-6.75476 13.25851,-1.4701l1.88567,1.64906l0.36512,-0.95845c0.20058,-0.52727 0.28105,-1.09417 0.17896,-1.25991c-0.35792,-0.57771 -5.42639,-4.23854 -7.29885,-5.27025c-1.77997,-0.98127 -2.36129,-1.5818 -1.53135,-1.5818c0.53687,0 4.92315,2.7132 7.12589,4.40789c1.04612,0.80591 1.96253,1.40164 2.0358,1.32357c0.07326,-0.07807 0.54288,-1.11458 1.04372,-2.30484c1.60342,-3.81457 2.85252,-5.71104 5.50326,-8.36178l2.58949,-2.59069l0.24982,-2.82009c0.13692,-1.55057 0.5633,-5.90201 0.94644,-9.66974c0.38314,-3.76893 0.69662,-6.97456 0.69662,-7.12349M116.77599,63.05908c-3.34375,-3.46986 -6.19747,-6.30917 -6.3428,-6.31037c-0.39155,-0.0024 -0.5645,1.11098 -1.00889,6.49053c-0.82153,9.92556 -1.2407,12.66999 -1.99977,13.07114c-2.36849,1.25511 -6.41246,7.12109 -7.71441,11.19268c-0.41557,1.29594 -0.38194,1.42206 0.72904,2.68677c1.18665,1.35119 0.91521,2.17632 -0.3411,1.03892c-1.02691,-0.92962 -1.42446,-0.6834 -1.68269,1.04012c-0.29906,1.99496 -0.05165,2.70959 0.93803,2.70959c0.99328,0 0.72424,0.86356 -0.31708,1.0173c-2.34207,0.3447 0.84795,8.69688 5.43,14.21455c11.7752,14.18092 42.19446,17.83935 54.07775,6.50494c3.49028,-3.32814 4.77902,-6.6839 2.8285,-7.3637c-0.59573,-0.20658 -1.08216,-0.54048 -1.08216,-0.74105c0,-0.19938 0.25823,-0.26423 0.57411,-0.14293c2.08624,0.79991 2.19194,0.74466 2.42975,-1.28994c0.28345,-2.42254 0.00961,-3.47227 -0.93923,-3.61279c-1.00649,-0.14893 -1.25511,-1.01129 -0.29186,-1.01129c1.4749,0 0.33269,-2.39011 -2.06222,-4.31421l-1.43166,-1.15062l-0.01802,-4.03076c-0.02883,-6.50855 -1.60582,-10.7627 -5.71945,-15.43723l-2.27961,-2.59069v-5.51407c0,-3.1672 -0.14893,-5.60535 -0.34951,-5.72906c-0.19217,-0.1189 -2.41173,1.16983 -4.93276,2.86453c-4.87991,3.2789 -5.13934,3.37018 -7.2448,2.54985c-4.68414,-1.82561 -15.76032,-2.2604 -14.7202,-0.57771c1.19986,1.94091 -1.56258,-0.41316 -6.52897,-5.56451M118.63162,75.74107c3.40621,-1.79559 8.66926,0.9068 10.9849,5.64138c4.90873,10.03366 -2.19554,18.65848 -10.37957,12.60273c-6.32358,-4.67813 -6.66709,-15.04929 -0.60533,-18.24411M122.91821,76.37283c-2.12107,-0.63776 -2.17512,-0.63536 -3.92627,0.16815c-7.42856,3.41101 -3.07351,18.74255 5.33871,18.79059c8.76894,0.05044 7.55347,-16.25996 -1.41245,-18.95874M145.14143,77.72883c2.62312,-1.76316 6.48693,-0.23541 9.13286,3.61039c5.38315,7.82251 2.92458,17.98468 -3.87342,16.00774c-7.3649,-2.14029 -11.01373,-15.75071 -5.25944,-19.61812M149.77032,78.35698c-6.50014,-3.31613 -9.12206,7.28323 -3.67645,14.85472c5.07688,7.05623 11.90972,3.36417 10.0733,-5.44201c-0.87077,-4.17609 -3.38459,-7.87656 -6.39685,-9.41271M124.81949,84.45717c1.11819,-1.23589 3.00986,-0.43238 3.00986,1.27793c0,1.60582 -1.68148,2.21836 -2.9474,1.07255c-0.81912,-0.74105 -0.83834,-1.49292 -0.06246,-2.35048M73.67471,85.18862c-1.52054,-1.52174 -3.65483,-0.40716 -5.27986,2.75643c-3.03988,5.91522 -0.38554,13.22848 6.49774,17.90901c2.91738,1.98295 3.04349,2.00457 3.64282,0.60774c0.28465,-0.66178 0.87077,-1.57339 1.30315,-2.02379l0.78669,-0.82153l-1.51454,-1.70431c-2.22917,-2.50661 -3.01106,-4.62649 -3.94188,-10.68223c-0.60774,-3.9647 -1.00048,-5.5477 -1.49412,-6.04133M151.41337,86.33443c1.5842,-0.59813 3.10114,1.12179 2.16671,2.45737c-0.72784,1.03772 -2.14389,1.00168 -2.84771,-0.07447c-0.65938,-1.00529 -0.37954,-1.98175 0.681,-2.3829M91.90082,88.14443c-4.31901,-2.1571 -8.31734,-0.96805 -8.67766,2.58228c-0.29426,2.89095 1.6947,5.0949 5.47203,6.06415c3.30892,0.84915 6.05094,1.84843 7.39373,2.69638c1.6959,1.07015 1.90849,1.10498 1.67788,0.27024c-0.09608,-0.34711 -0.27624,-1.38602 -0.40236,-2.30964l-0.227,-1.67908l-2.41773,-0.41196c-3.49028,-0.59332 -6.49053,-1.4761 -6.96375,-2.04661c-0.55009,-0.66299 -0.33269,-0.63896 3.78935,0.40596c4.80184,1.21788 5.62577,1.20106 5.62577,-0.1165c0,-1.27312 -2.89456,-4.26857 -5.27025,-5.45522M135.04293,95.44328c1.09897,-0.55369 0.89839,-0.55009 4.8691,-0.06846c5.01203,0.60774 5.69303,1.76796 2.75643,4.70455c-2.57267,2.57267 -4.56883,2.36369 -7.40454,-0.77348c-1.5854,-1.75595 -1.66467,-3.13597 -0.221,-3.86261M90.99162,103.61049c-4.83067,-2.46458 -11.84846,0.35071 -11.85327,4.755c-0.0036,3.84339 6.50735,5.94885 11.11942,3.59598c4.17128,-2.12708 4.54601,-6.40526 0.73385,-8.35097M101.22345,107.51273l-1.15182,-1.71391h-2.66635h-2.66756l-0.17175,1.78838c-0.41677,4.34664 -6.02332,7.3601 -11.10381,5.96927c-8.47108,-2.31805 -12.95704,-2.68197 -14.2722,-1.15422c-1.82321,2.11267 -0.94403,5.57652 1.77397,6.98777c5.91763,3.07231 22.7601,3.45545 36.02942,0.81912c7.09827,-1.41005 6.95895,-1.28393 3.80616,-3.42903c-3.02787,-2.05982 -7.90178,-6.77758 -9.57606,-9.26738M131.07462,106.10389c0,-0.48523 0.59212,-0.35431 1.08576,0.24021c1.11458,1.34279 9.35746,2.35888 12.34931,1.52174c0.62575,-0.17415 0.99208,-0.13812 0.99208,0.09969c0,1.85804 -11.54459,1.05093 -13.76896,-0.96205c-0.36152,-0.32669 -0.65818,-0.73145 -0.65818,-0.89959M171.18404,115.97661c-1.14821,-1.22869 -2.36249,-1.43887 -4.54722,-0.78549c-0.57651,0.17295 -2.17992,0.42518 -3.56355,0.5621c-2.0394,0.20058 -2.66155,0.41437 -3.2813,1.129c-0.98967,1.14101 -4.95077,3.74971 -7.25681,4.77902l-1.80279,0.80591l1.93491,0.675c10.85999,3.78935 18.93112,2.07663 19.44517,-4.12564c0.14052,-1.6971 0.05165,-1.99136 -0.92842,-3.03988" fill="#2f2b2c" fill-rule="evenodd"/><path d="M307.36629,3.15618c5.15015,-1.48571 10.46124,-0.18616 23.34502,5.71705c14.50881,6.64787 20.19463,8.20445 33.10243,9.0596l6.05214,0.40115l-3.52751,2.74923c-4.47035,3.48428 -8.08194,5.81554 -11.12302,7.17994l-2.39011,1.07255h-9.80786c-11.92773,0 -13.2489,-0.37593 -24.37913,-6.93733c-7.30005,-4.3034 -11.41608,-5.63418 -18.35461,-5.93564l-4.81745,-0.20898l0.18977,-1.17464c0.7891,-4.85589 6.15544,-10.32071 11.71034,-11.92293M118.80818,77.28564c1.71271,-0.9056 2.95461,-0.86476 4.97479,0.16695c7.57269,3.86381 7.96183,17.15715 0.50324,17.16436c-7.39133,0.00601 -11.81243,-13.98035 -5.47804,-17.3313M145.5474,79.34064c1.39443,-1.26592 2.97022,-1.14461 5.16816,0.39995c6.43048,4.51959 6.62865,18.05194 0.23781,16.33082c-5.7699,-1.55297 -9.47877,-13.03271 -5.40597,-16.73077M127.38736,83.63805c-1.52054,-1.06534 -3.88663,0.12971 -3.88663,1.96373c0,0.87437 1.63224,2.52463 2.49701,2.52463c2.07303,0 3.09393,-3.29571 1.38963,-4.48836M70.63844,85.87923c2.22917,-1.86525 3.15759,-0.57531 3.82658,5.31229c0.18016,1.5866 0.40476,3.21044 0.49964,3.60679c0.15854,0.66419 -0.01201,0.72184 -2.13909,0.72784c-2.03219,0.00601 -2.43815,0.12851 -3.35937,1.01129l-1.04853,1.00409l-0.41797,-2.12828c-0.66299,-3.37018 0.5609,-7.79488 2.63873,-9.53402M153.70741,86.302c-1.10858,-0.92482 -2.51022,-0.87077 -3.45305,0.13452c-2.00337,2.13068 1.0185,5.00362 3.46266,3.29211c1.08095,-0.75667 1.07615,-2.52103 -0.00961,-3.42663M113.81177,93.92393c2.85852,-0.5609 3.55994,-0.44679 5.35433,0.86957c2.28081,1.67428 4.85108,2.27 7.20036,1.66827c2.54385,-0.65218 6.59743,0.54048 7.60872,2.23637c2.79367,4.69374 8.34857,4.57724 10.9861,-0.2318c0.40596,-0.74105 2.86213,-0.908 6.21789,-0.42397c1.88086,0.27264 4.06079,-0.23421 4.06079,-0.94283c0,-1.43046 5.14775,1.63224 6.44849,3.83619l0.74105,1.25631h-0.73385c-1.08336,0 -0.7879,1.583 0.32429,1.74034c0.76868,0.1093 0.82153,0.26664 0.72184,2.16431l-0.10689,2.04661h-1.41005c-1.78117,0 -2.05982,0.70502 -0.60654,1.53255c1.26952,0.72304 1.31756,0.95725 0.5705,2.74562c-3.15879,7.56188 -17.82614,12.08507 -31.19635,9.6205c-12.51505,-2.30604 -20.11656,-6.04494 -22.55111,-11.09179c-2.99304,-6.20228 0.63536,-15.89844 6.37043,-17.02624M132.42218,105.7796c-0.53687,-0.85756 -1.64786,-0.91761 -1.96013,-0.10449c-1.11098,2.89696 12.61114,5.53088 15.37958,2.95221c1.44007,-1.34158 0.29306,-2.30243 -1.51093,-1.26712c-1.18425,0.6798 -6.76317,0.87918 -6.76317,0.24261c0,-0.19818 -0.44679,-0.36152 -0.99208,-0.36272c-1.65746,-0.0036 -3.68966,-0.71823 -4.15327,-1.46049M99.15523,111.0931c2.67596,-0.59813 3.626,-0.30627 5.79632,1.77997c1.15902,1.11338 2.47899,2.2688 2.93419,2.56667c1.63344,1.07014 0.53928,1.51214 -6.07136,2.45497c-11.41128,1.62624 -13.73893,-4.32502 -2.65915,-6.80161" fill="#ffffff" fill-rule="evenodd"/><path d="M416.192,1.45068c1.19025,-0.06966 2.79847,-0.05405 3.57556,0.03483c0.77589,0.08888 2.02979,0.15253 2.78526,0.14173c13.88186,-0.19097 19.91479,17.24843 8.10716,23.43029c-1.21307,0.63536 -2.61111,1.36921 -3.10714,1.63224c-0.49604,0.26183 -1.17584,0.47802 -1.51093,0.47922c-0.3363,0.0012 -0.71463,0.17055 -0.84194,0.37713c-0.12851,0.20658 -0.54288,0.27744 -0.92362,0.15614c-0.41557,-0.13092 -0.69061,-0.04804 -0.69061,0.20778c0,0.26183 -0.35071,0.36032 -0.902,0.25462c-0.49604,-0.09488 -0.902,-0.01441 -0.902,0.17896c0,0.19337 -0.48042,0.28105 -1.06774,0.19577c-0.71223,-0.10449 -1.135,0.01681 -1.26952,0.36632c-0.14653,0.38434 -0.58131,0.47202 -1.63584,0.33029c-0.7903,-0.10569 -1.53375,-0.03603 -1.65146,0.15614c-0.12371,0.19938 -1.07255,0.25703 -2.22677,0.13452c-1.14461,-0.12251 -2.10186,-0.06606 -2.22436,0.13212c-0.28465,0.46121 -58.19379,0.63536 -58.34632,0.17535c-0.06246,-0.18496 1.22869,-1.00529 2.86573,-1.82441c4.40789,-2.20275 15.79275,-10.44683 15.21984,-11.01973c-0.09969,-0.09969 0.30867,-0.38434 0.908,-0.63296c0.59813,-0.24742 0.99328,-0.60533 0.87677,-0.7939c-0.1165,-0.18857 0.12731,-0.43118 0.54168,-0.54048c0.41437,-0.1081 0.67259,-0.32789 0.57291,-0.48883c-0.09969,-0.16094 0.59212,-0.9044 1.53736,-1.65386c0.94403,-0.74826 1.87966,-1.54456 2.07783,-1.76796c0.19818,-0.2234 0.84795,-0.71463 1.44247,-1.09176c0.59573,-0.37713 1.20466,-0.87798 1.3536,-1.11458c0.33149,-0.52366 3.34375,-2.23758 4.17609,-2.3745c0.33149,-0.05405 0.80111,-0.28585 1.04372,-0.51526c1.04252,-0.98247 8.34257,-0.82153 8.68127,0.19217c0.06005,0.18016 0.38794,0.25462 0.72784,0.16575c0.3411,-0.08888 1.01249,-0.01561 1.49412,0.16214c0.91521,0.3387 1.88446,0.1141 4.61087,-1.06534c0.84074,-0.36392 1.82321,-0.66178 2.18233,-0.66178c0.35912,0 0.80711,-0.14293 0.99568,-0.31708c0.26904,-0.24862 2.29282,-1.03411 3.40861,-1.32117c0.09969,-0.02642 0.42397,-0.14653 0.72184,-0.26784c1.29594,-0.52847 5.40597,-1.33558 7.39373,-1.45208M301.81498,4.86888c1.18304,-0.88878 1.30435,-0.92602 1.30435,-0.40956c0,0.20538 -0.28465,0.47922 -0.63176,0.61014c-0.34711,0.13092 -1.34038,1.0233 -2.20635,1.98295c-1.75355,1.94212 -3.25848,2.99665 -2.62792,1.84123c0.39875,-0.73265 2.56306,-2.82369 4.16168,-4.02475M322.41559,4.80882c-0.4552,-0.19457 -0.52126,-0.30987 -0.18136,-0.30987c0.29786,0 0.86596,0.13932 1.26352,0.30987c0.454,0.19577 0.52126,0.30987 0.18016,0.30987c-0.29786,0 -0.86596,-0.13932 -1.26231,-0.30987M328.28637,7.37431c-1.64185,-0.82633 -2.57988,-1.40284 -2.08384,-1.28273c1.28874,0.31348 5.46963,2.38531 5.25224,2.6027c-0.10089,0.09969 -1.52655,-0.49364 -3.1684,-1.31997M334.13674,9.84489c0,-0.16695 0.44679,-0.07086 0.99208,0.21379c0.54528,0.28345 1.19506,0.51766 1.44247,0.51886c0.24862,0.0012 0.4516,0.17776 0.4516,0.39275c0,0.21499 -0.12251,0.32669 -0.27024,0.24742c-0.14893,-0.07927 -0.79871,-0.35191 -1.44367,-0.60654c-0.64377,-0.25462 -1.17224,-0.59933 -1.17224,-0.76628M296.71529,10.30129c0.20658,-0.25342 0.42638,-0.40836 0.48883,-0.34591c0.21139,0.21139 -0.29786,1.70671 -0.58011,1.70671c-0.15374,0 -0.38194,0.40596 -0.50565,0.902c-0.12491,0.49604 -0.37833,0.9008 -0.5621,0.9008c-0.35311,0 0.51766,-2.3769 1.15902,-3.16359M294.82362,14.92898c0,-0.40836 0.16214,-0.74226 0.36032,-0.74226c0.19817,0 0.36032,0.23421 0.36032,0.52006c0,0.28585 -0.16214,0.61975 -0.36032,0.74226c-0.19817,0.12251 -0.36032,-0.1117 -0.36032,-0.52006M292.89832,16.79662c0.53928,-0.3411 7.11989,-0.29786 10.40118,0.06726c4.7574,0.52967 9.91235,2.55706 16.65751,6.55058c3.9635,2.34687 7.44658,4.0716 10.42881,5.16336c4.37186,1.60101 3.91426,1.65266 -15.81557,1.76196c-18.01351,0.10089 -21.05219,0.00841 -20.65824,-0.62936c0.10569,-0.16935 -0.66058,-0.28825 -1.7031,-0.26423c-3.91666,0.09488 -8.16601,-4.18089 -6.96975,-7.01179c0.53327,-1.26352 3.09633,-3.91906 3.78094,-3.91906c0.21619,0 0.71703,-0.32549 1.11458,-0.72184c0.39635,-0.39635 1.08576,-0.72424 1.53255,-0.72664c0.44679,-0.0036 1.00048,-0.12491 1.23109,-0.27024M363.35254,17.43317c0,-0.21379 1.32957,-0.36152 3.26688,-0.36152c2.08624,0 3.18641,0.13092 3.04469,0.36152c-0.12251,0.19817 -1.59261,0.36032 -3.26688,0.36032c-1.78958,0 -3.04469,-0.14893 -3.04469,-0.36032M110.51606,55.0432c0,-0.26423 0.39034,0.09969 2.89456,2.69518l2.69638,2.79607l-2.79487,-2.69638c-1.53856,-1.48331 -2.79607,-2.74082 -2.79607,-2.79487M108.0755,63.59956c0,-0.69421 0.07447,-0.97766 0.16455,-0.63056c0.09128,0.34711 0.09128,0.91521 0,1.26231c-0.09008,0.34711 -0.16455,0.06246 -0.16455,-0.63176M151.77129,66.66585c-0.0012,-2.3805 0.05765,-3.4014 0.12851,-2.2688c0.07086,1.1326 0.07206,3.08072 0.0012,4.32862c-0.07086,1.2467 -0.12851,0.32068 -0.12971,-2.05982M127.55791,66.38241c-0.54528,-0.08167 -0.09849,-0.15013 0.99208,-0.15013c1.09176,0 1.53736,0.06846 0.99208,0.15013c-0.54528,0.08287 -1.43767,0.08287 -1.98415,0M345.04717,72.50422c-0.34711,-0.09008 -0.06246,-0.16455 0.63176,-0.16455c0.69421,0 0.97886,0.07447 0.63176,0.16455c-0.34831,0.09128 -0.91521,0.09128 -1.26352,0M339.48746,72.96903c0.52847,-0.15974 1.69229,-0.28585 2.58468,-0.27865l1.62263,0.01081l-1.94812,0.32309c-5.33031,0.88518 -10.61497,6.15183 -12.88618,12.84054c-0.6762,1.99256 -0.78669,8.97432 -0.16094,10.14536c0.21379,0.39875 0.38794,1.07015 0.38794,1.49292c0,0.78669 1.06414,3.65843 2.07303,5.59094c1.9241,3.68726 4.40789,6.66709 11.12783,13.34498c10.15257,10.09011 15.31953,15.86241 17.27365,19.29624c0.70622,1.2431 -1.35239,-0.96565 -2.4934,-2.67476c-1.61903,-2.42374 -6.59863,-7.75405 -15.34835,-16.43291c-9.79705,-9.71538 -12.50184,-14.04881 -13.74013,-22.01064c-1.40764,-9.05119 4.10042,-19.41154 11.50736,-21.64792M350.00755,72.75763c0,-1.62744 8.93589,4.80184 9.83068,7.07305c0.15734,0.39875 0.65698,0.04084 1.90728,-1.36561c1.91689,-2.15831 5.51167,-4.81986 7.34088,-5.436c1.48811,-0.50084 1.47971,-0.49964 1.47971,-0.05165c0,0.19817 -0.20298,0.35792 -0.4516,0.35551c-1.70671,-0.02162 -7.42736,4.33463 -8.98513,6.84244l-0.55009,0.88638l-2.85372,-2.93059c-2.16791,-2.22797 -3.43744,-3.20203 -5.28587,-4.05718c-1.33798,-0.61975 -2.43215,-1.21187 -2.43215,-1.31636M379.22215,73.07712l-1.98415,-0.46001l1.99736,0.14653c4.68774,0.3423 10.31591,5.54049 12.65197,11.68512c0.2258,0.59212 0.20178,0.81312 -0.07687,0.71944c-0.221,-0.07326 -0.59573,-0.69541 -0.83234,-1.38362c-1.67428,-4.84628 -6.86526,-9.57365 -11.75598,-10.70746M120.34434,76.47252c-0.34711,-0.09128 -0.06246,-0.16575 0.63176,-0.16575c0.69421,0 0.97766,0.07447 0.63056,0.16575c-0.34711,0.09008 -0.91521,0.09008 -1.26231,0M117.31286,78.04231c0.76267,-0.80231 1.61543,-1.45208 1.89407,-1.44367c0.27865,0.00841 0.06366,0.25462 -0.47682,0.54888c-0.54168,0.29306 -1.39323,1.1362 -1.89407,1.87245c-0.49964,0.73625 -0.9092,1.14581 -0.9092,0.9092c0,-0.23661 0.62335,-1.08576 1.38602,-1.88687M124.4916,77.67718c-1.04012,-0.59813 -1.72112,-1.08816 -1.51214,-1.08936c1.21547,-0.01081 4.14126,2.50181 5.35313,4.59526c0.61374,1.06054 -0.12731,0.32909 -0.99688,-0.98487c-0.54048,-0.81672 -1.76796,-1.90488 -2.84411,-2.52103M145.57982,78.58999c0.44199,-0.30987 1.05213,-0.55729 1.3548,-0.54888c0.30387,0.00721 0.01802,0.24502 -0.63296,0.52847c-0.81432,0.35431 -1.40404,0.99688 -1.88567,2.05982c-0.38554,0.85035 -0.70502,1.33438 -0.70983,1.07615c-0.01321,-0.7927 1.02691,-2.52223 1.87365,-3.11555M147.69609,78.15399c-0.50084,-0.42277 1.40404,-0.02883 1.97454,0.40836c0.63656,0.48763 0.58492,0.49964 -0.5621,0.12731c-0.69421,-0.2246 -1.32957,-0.46601 -1.41245,-0.53567M151.97427,80.73148l-1.57459,-1.80279l1.54697,1.44247c0.85155,0.7939 1.71632,1.76796 1.9241,2.16431c0.43238,0.82993 0.25462,0.66058 -1.89647,-1.80399M128.58001,82.07667c0.07447,-0.67259 1.38963,2.73121 1.362,3.52391c-0.02642,0.72064 -0.06486,0.75667 -0.19337,0.18136c-0.08768,-0.39755 -0.39395,-1.33318 -0.6786,-2.08144c-0.28585,-0.74826 -0.50685,-1.47851 -0.49003,-1.62383M115.29628,83.61763c-0.0048,-0.7939 0.06606,-1.16022 0.15614,-0.81552c0.09128,0.3447 0.09368,0.99328 0.00721,1.44247c-0.08528,0.448 -0.15974,0.16575 -0.16334,-0.62695M143.41911,84.33827l0.02522,-2.16311l0.25462,2.52463c0.14173,1.38843 0.35672,3.01106 0.48042,3.60678c0.14413,0.69301 0.04324,0.5645 -0.28105,-0.36152c-0.27744,-0.7927 -0.49364,-2.41653 -0.47922,-3.60679M124.57327,84.04161c0.76868,-0.64737 1.30435,-0.83474 1.89407,-0.66299c0.72064,0.20898 0.6762,0.25222 -0.35912,0.35191c-1.50733,0.14533 -2.4898,1.46529 -1.90368,2.55946c0.51525,0.96325 1.60101,1.52655 2.42614,1.25991c0.54768,-0.17776 0.5669,-0.14893 0.1165,0.17535c-1.99376,1.43407 -4.07039,-2.08744 -2.17392,-3.68365M154.17341,83.48792c0.03003,-0.4552 1.39803,2.30484 1.40524,2.8345c0.0036,0.29786 -0.31468,-0.16695 -0.70622,-1.03171c-0.39275,-0.86476 -0.70742,-1.67548 -0.69902,-1.80279M70.23967,85.69187c0.39995,-0.44679 0.902,-0.80711 1.11579,-0.80111c0.21379,0.00601 0.09008,0.18376 -0.27384,0.39515c-0.36272,0.21139 -1.1338,1.1314 -1.71271,2.043c-0.57891,0.91281 -1.05213,1.50133 -1.05213,1.30795c0,-0.41917 0.91641,-1.82321 1.9229,-2.945M73.16065,85.44685c-0.31228,-0.31228 -0.39875,-0.5669 -0.19337,-0.5669c0.4564,0 1.26111,1.42206 0.96926,1.71391c-0.1153,0.1153 -0.20898,0.03123 -0.20898,-0.18496c0,-0.21739 -0.25583,-0.65097 -0.5669,-0.96205M85.86189,85.87803c0.17055,-0.27745 2.65314,-0.40356 2.65314,-0.13452c0,0.07807 -0.63536,0.20298 -1.41245,0.27744c-0.77709,0.07447 -1.33558,0.00961 -1.2407,-0.14293M151.11308,85.92847c0.36272,-0.58612 1.71752,-0.3447 2.57147,0.4564c1.05573,0.99328 1.06534,2.1559 0.02282,3.03748c-0.81072,0.68701 -0.81072,0.68701 -0.18016,-0.06246c1.27793,-1.51814 -0.02402,-3.78214 -1.89527,-3.29331c-0.39635,0.10329 -0.62936,0.04204 -0.51886,-0.13812M149.8592,87.85498c0.03003,-1.04492 0.13092,-0.89719 0.48523,0.71223c0.15734,0.71583 0.53327,1.07495 1.38362,1.31997c0.9032,0.26183 0.98367,0.3447 0.35672,0.36993c-1.10858,0.04444 -2.2604,-1.19866 -2.22557,-2.40212M155.68434,88.12642c0,-0.69541 0.07447,-0.97886 0.16575,-0.63176c0.09008,0.34711 0.09008,0.91521 0,1.26231c-0.09128,0.34711 -0.16575,0.06366 -0.16575,-0.63056M115.94365,87.50667c0.00961,-0.15494 0.48883,0.63056 1.06414,1.74514c0.57651,1.11579 1.82681,2.7204 2.77805,3.56715c0.95244,0.84555 1.39443,1.3632 0.98367,1.14941c-1.6935,-0.88158 -4.90393,-5.18017 -4.82586,-6.46171M129.63214,89.52325c0,-0.43839 0.10089,-0.69541 0.2234,-0.57291c0.78429,0.78429 -1.96133,5.6678 -3.18521,5.6678c-0.21019,0 0.05044,-0.3399 0.57891,-0.75547c1.11458,-0.87677 2.3829,-3.18761 2.3829,-4.33943M67.57934,90.70389c0.23301,-0.86236 0.49243,-1.50133 0.57531,-1.41845c0.08167,0.08287 -0.00961,0.70742 -0.20418,1.38723c-0.46001,1.60101 -0.448,3.77493 0.02883,5.49245l0.37954,1.36681l1.08816,-0.91521c0.59933,-0.50445 1.3608,-0.9032 1.69229,-0.88758c0.49364,0.02282 0.50565,0.06366 0.06246,0.2246c-0.29666,0.10689 -1.04012,0.66779 -1.65026,1.2431l-1.10978,1.04853l-0.46121,-1.00168c-0.6846,-1.48571 -0.88398,-4.7526 -0.40115,-6.53977M74.48783,90.31355c0.02042,-0.50925 0.25222,0.29186 0.51285,1.77997c0.64377,3.66924 0.63656,3.9683 -0.10089,3.9623c-0.48163,-0.0048 -0.51766,-0.07807 -0.15253,-0.30987c0.38194,-0.24261 0.39995,-0.72424 0.09008,-2.40452c-0.21379,-1.15662 -0.37113,-2.51862 -0.34951,-3.02787M144.4244,89.79829c0.0024,-0.2258 0.41917,0.32068 0.92482,1.21307c0.50685,0.89239 1.60101,2.33366 2.43095,3.20203c1.14221,1.19506 1.26952,1.42686 0.52126,0.95244c-1.00649,-0.63776 -3.88543,-4.62288 -3.87702,-5.36754M155.64111,92.45384c0.03243,-0.65938 0.08888,-0.72424 0.21379,-0.24141c0.71703,2.77325 -4.12925,5.8876 -6.09778,3.91906c-0.20418,-0.20418 0.24862,-0.18737 1.10257,0.03964c2.36969,0.63296 4.65891,-1.14581 4.78142,-3.71728M112.90257,93.70654c2.45737,-0.87557 4.81986,-0.66299 6.25632,0.5657c0.68701,0.58732 1.11579,1.06774 0.95364,1.06774c-0.16214,0 -0.77709,-0.40596 -1.36681,-0.902c-2.19194,-1.84483 -6.06295,-1.03772 -8.87944,1.84963c-1.05213,1.07855 -1.75475,1.67188 -1.56138,1.31876c0.68821,-1.26231 3.22004,-3.40861 4.59766,-3.89984M122.1171,94.66259c-0.28105,-0.17896 0.31708,-0.23901 1.44367,-0.14653c2.64233,0.21859 3.00145,0.40115 0.84194,0.42878c-0.99208,0.01201 -2.02018,-0.1141 -2.28562,-0.28225M391.92937,95.7003c0,-0.69421 0.07447,-0.97886 0.16455,-0.63176c0.09128,0.34711 0.09128,0.91521 0,1.26231c-0.09008,0.34711 -0.16455,0.06366 -0.16455,-0.63056M72.37398,95.5886c-0.34711,-0.09128 -0.06246,-0.16575 0.63176,-0.16575c0.69421,0 0.97886,0.07447 0.63056,0.16575c-0.34711,0.09008 -0.91521,0.09008 -1.26231,0M121.0938,95.86725c-0.52246,-0.39155 -0.28465,-0.38074 1.14461,0.05165c1.68509,0.51045 2.95581,0.50685 4.68894,-0.01321c0.39635,-0.1189 0.16695,0.04084 -0.51165,0.35551c-1.39683,0.64857 -4.20852,0.44079 -5.3219,-0.39395M129.09166,96.05462c-0.7939,-0.39034 -1.04732,-0.60894 -0.5645,-0.48643c1.35239,0.3435 3.15519,1.18545 2.54745,1.19025c-0.29666,0.0024 -1.19025,-0.31468 -1.98295,-0.70382M153.79749,97.40821c2.16071,-1.18425 3.33174,-1.20106 4.57844,-0.06366c0.80951,0.73865 0.85275,0.84675 0.221,0.53928c-0.43478,-0.21139 -0.89119,-0.54528 -1.0137,-0.74346c-0.32789,-0.53207 -2.02139,-0.43358 -2.67476,0.15494c-0.31348,0.28225 -1.05693,0.62335 -1.65146,0.75787c-0.89719,0.20298 -0.80471,0.09248 0.54048,-0.64497M146.22358,97.37338c2.08264,-0.66178 2.17272,-0.66419 3.24647,-0.05044c1.0161,0.58131 0.68581,0.74105 -0.36752,0.17776c-1.18425,-0.63416 -3.94308,0.3435 -4.82826,1.71151c-0.41557,0.64257 -0.86957,1.16983 -1.01009,1.17224c-0.98367,0.01681 1.55297,-2.56306 2.95941,-3.01106M391.10424,98.67533c0.44559,-1.66947 1.27192,-2.17993 0.87677,-0.54048c-0.73505,3.0519 -6.24311,11.7716 -7.77447,12.30847c-0.21259,0.07447 0.52246,-0.96685 1.63344,-2.31324c2.18713,-2.65194 4.61207,-7.00699 5.26425,-9.45475M133.96076,98.45794c0,-0.19457 0.03964,-0.28465 0.09008,-0.20058c0.04924,0.08287 0.57651,0.71823 1.17224,1.41245l1.08216,1.25991l-1.17224,-1.05934c-0.64497,-0.58251 -1.17224,-1.21788 -1.17224,-1.41245M107.32844,99.50286c0.62815,-1.37642 0.75787,-0.85876 0.14173,0.5609c-0.29306,0.675 -0.53928,1.03171 -0.54648,0.7927c-0.00841,-0.23781 0.17415,-0.84795 0.40476,-1.3536M86.4408,101.3585c-0.34711,-0.09008 -0.06246,-0.16455 0.63176,-0.16455c0.69421,0 0.97766,0.07447 0.63056,0.16455c-0.34711,0.09128 -0.91521,0.09128 -1.26231,0M93.17635,103.72579l-0.87437,-0.99208l0.9056,0.7927c0.70382,0.61735 1.46409,0.82153 3.42663,0.92121l2.52103,0.12851l-2.55225,0.07086c-2.3745,0.06486 -2.61351,0.0012 -3.42663,-0.92121M105.98446,104.56533c0.3423,-2.27721 0.38434,-2.11267 0.38434,1.49652c0,2.69998 -0.04564,2.93539 -0.31588,1.65146c-0.17415,-0.82273 -0.20418,-2.23998 -0.06846,-3.14798M162.92314,105.79882c0,-1.09056 0.06726,-1.53736 0.15013,-0.99208c0.08287,0.54648 0.08287,1.43887 0,1.98415c-0.08287,0.54528 -0.15013,0.09969 -0.15013,-0.99208M144.39197,107.51273c0.63296,-0.83714 1.83162,-0.82513 1.83162,0.01802c0,0.72184 -0.66178,1.52054 -1.2443,1.50373c-0.20898,-0.00601 -0.09488,-0.17656 0.25222,-0.37833c0.73505,-0.42878 0.84795,-1.41485 0.16214,-1.41485c-0.25703,0 -0.69662,0.20298 -0.97406,0.4516c-0.42998,0.38314 -0.43478,0.35672 -0.02762,-0.18016M132.15677,107.8106c0,-0.09368 0.49604,0.0024 1.10017,0.21259c0.60533,0.21139 1.03411,0.4516 0.95244,0.53327c-0.17896,0.17776 -2.05261,-0.50204 -2.05261,-0.74586M139.17216,109.42242c-1.86525,-0.2294 -1.64906,-0.26303 1.64065,-0.25583c2.81649,0.00601 3.36657,0.07447 2.1463,0.26423c-0.9032,0.14052 -2.6075,0.13692 -3.78694,-0.00841M160.79243,109.55574c-0.5633,-0.4504 -0.47442,-0.44439 0.50805,0.03243c1.20106,0.58251 1.33678,1.50493 0.36873,2.52343c-0.18857,0.19817 -0.15974,-0.12371 0.06366,-0.71463c0.23541,-0.62215 0.26543,-1.12059 0.07326,-1.18545c-0.18256,-0.06005 -0.63896,-0.35551 -1.0137,-0.65578M106.54896,109.90525c0,-0.37713 0.19577,-0.10209 0.86476,1.21427c0.32789,0.64497 0.51525,1.17224 0.41557,1.17224c-0.20778,0 -1.28033,-1.99977 -1.28033,-2.38651M105.3527,113.01239c-1.72833,-1.5866 -3.01226,-2.88495 -2.85252,-2.88495c0.16094,0 1.0149,0.73985 1.90008,1.64425c0.88398,0.9044 2.45737,2.30243 3.49749,3.10594c1.8172,1.40644 2.12468,2.10306 0.92962,2.10306c-0.46001,0 -0.48163,-0.09969 -0.1141,-0.54168c0.24622,-0.29786 0.29906,-0.54048 0.1153,-0.54048c-0.18256,0 -1.74634,-1.29835 -3.47587,-2.88615M97.96497,110.84328c0.65458,-0.15494 1.83882,-0.27745 2.63272,-0.27384c1.38122,0.00841 1.36561,0.02042 -0.36032,0.28465c-0.99208,0.15133 -2.29042,0.39755 -2.88615,0.54648c-0.59452,0.14893 -0.96805,0.14773 -0.82993,-0.0024c0.13932,-0.15013 0.7879,-0.39875 1.44367,-0.55489M376.6771,117.79141c3.86982,-3.81817 7.10187,-6.94333 7.18114,-6.94333c0.27624,0 -2.9438,3.44584 -6.40406,6.85325c-3.23566,3.18641 -9.46075,9.68415 -11.60465,12.1127c-0.51045,0.57891 -1.78117,2.22917 -2.82369,3.66684c-2.11867,2.92338 -2.86933,3.55394 -1.07255,0.902c3.54793,-5.23783 5.87439,-7.85974 14.7238,-16.59145M94.46629,112.13682c0.59452,-0.30867 1.2443,-0.55729 1.44247,-0.55009c0.19817,0.00601 -0.28825,0.33149 -1.08216,0.72184c-6.117,3.00746 -2.05381,6.85806 6.10379,5.78311c5.55851,-0.73145 5.89961,-0.75066 3.82418,-0.21739c-10.00604,2.57027 -17.85136,-1.80399 -10.28829,-5.73747M108.40219,113.27182c-0.3447,-0.50925 -0.09128,-0.37954 0.69662,0.35672c0.6798,0.63536 1.64305,1.48211 2.13909,1.88086c0.49604,0.39875 0.80231,0.73145 0.681,0.73745c-0.39155,0.02162 -2.95701,-2.1499 -3.51671,-2.97503M158.15613,116.1904c1.4713,-1.49532 2.7216,-2.74082 2.77805,-2.76724c0.50805,-0.24382 -0.95004,1.61903 -2.19674,2.80688c-2.88014,2.74562 -3.29451,2.7168 -0.58131,-0.03964M115.6554,118.26583c-0.94163,-0.49003 -1.5842,-0.89839 -1.42806,-0.908c0.15734,-0.00961 0.94764,0.32068 1.75835,0.73505c0.80951,0.41316 3.11675,1.29715 5.12493,1.96614c2.00937,0.66779 3.43263,1.22148 3.16479,1.23109c-0.80591,0.03003 -6.78119,-2.06703 -8.62001,-3.02427M152.53516,120.05181c2.97503,-1.42326 2.70479,-1.31756 2.70479,-1.06534c0,0.23301 -4.5292,2.33486 -4.95077,2.29763c-0.15374,-0.01321 0.85756,-0.5681 2.24598,-1.23229M147.12559,121.87862c2.02379,-0.5681 3.30532,-0.69301 2.09225,-0.20538c-1.52775,0.61494 -6.2251,1.43767 -7.93901,1.39083c-1.37882,-0.03843 -1.14581,-0.1117 1.15782,-0.36392c1.5866,-0.17295 3.69686,-0.54288 4.68894,-0.82153M128.9115,122.37826c-0.58251,-0.19457 -0.19938,-0.2282 1.08095,-0.09608c1.09176,0.1141 2.05141,0.26543 2.13428,0.3375c0.28946,0.25222 -2.32165,0.05645 -3.21524,-0.24141M80.48954,123.00522c-0.44559,-0.08528 -0.08047,-0.15614 0.81192,-0.15614c0.89239,0 1.25751,0.07086 0.81192,0.15614c-0.44679,0.08648 -1.17704,0.08648 -1.62383,0M94.20205,123.01242c-0.64857,-0.08047 -0.20538,-0.14773 0.98487,-0.15013c1.19025,-0.0012 1.72112,0.06366 1.17944,0.14653c-0.54168,0.08167 -1.51574,0.08407 -2.16431,0.0036M133.51637,123.01242c-0.64857,-0.08047 -0.20538,-0.14773 0.98487,-0.15013c1.19025,-0.0012 1.72112,0.06366 1.17944,0.14653c-0.54288,0.08167 -1.51694,0.08407 -2.16431,0.0036M85.5388,123.37874c-1.23949,-0.07086 -0.2246,-0.12851 2.25439,-0.12851c2.48019,0 3.49389,0.05765 2.25439,0.12851c-1.23949,0.07086 -3.26809,0.07086 -4.50878,0M137.65763,124.8032c-0.34711,-0.09128 -0.06366,-0.16455 0.63056,-0.16455c0.69421,0 0.97886,0.07326 0.63176,0.16455c-0.34711,0.09008 -0.91521,0.09008 -1.26231,0M71.40832,127.76021c0.26303,-0.42638 0.78069,-0.40596 1.05693,0.04084c0.38794,0.62815 -0.18737,1.16383 -0.75066,0.69782c-0.27744,-0.2306 -0.41557,-0.5633 -0.30627,-0.73865M364.43469,150.52391c0.69902,-0.4528 1.08216,-0.4528 1.08216,0c0,0.19818 -0.36632,0.35792 -0.81192,0.35431c-0.65698,-0.0036 -0.70863,-0.07206 -0.27024,-0.35431M325.48069,162.75071c0.69181,-0.38794 0.72184,-0.38794 0.72184,-0.00601c0,0.30507 -1.15902,0.82032 -2.04901,0.9092c-0.23421,0.02402 -0.54528,0.16334 -0.69061,0.30987c-0.14653,0.14533 -0.57291,0.26543 -0.94884,0.26543c-1.1338,0 -0.34711,-0.6762 1.08576,-0.93443c0.73745,-0.13212 1.583,-0.37713 1.88086,-0.54408M320.24887,262.69455c0,-53.85796 0.04084,-75.89142 0.09248,-48.96244c0.05044,26.92898 0.05044,70.99589 0,97.92487c-0.05165,26.92898 -0.09248,4.89552 -0.09248,-48.96244" fill="#e3deee" fill-rule="evenodd"/><text transform="translate(0,210.81263) scale(2.58417,2.58417)" font-size="40" xml:space="preserve" data-paper-data="{&quot;origPos&quot;:null}" fill="#000000" fill-rule="nonzero" stroke="none" stroke-width="1" stroke-linecap="butt" stroke-linejoin="miter" stroke-miterlimit="10" stroke-dasharray="" stroke-dashoffset="0" font-family="Sans Serif" font-weight="normal" text-anchor="start" style="mix-blend-mode: normal"><tspan x="0" dy="0">Flying</tspan><tspan x="0" dy="46.150000000000006px">Game!</tspan></text><path d="M478.17,218.71084c0,4.02093 -3.26108,7.28117 -7.28117,7.28117h-62.43951c-4.02093,0 -7.28032,-3.26108 -7.28032,-7.28117v-31.69952c0,-4.02093 3.25939,-7.28032 7.28032,-7.28032h62.43866c4.02262,0 7.28117,3.25939 7.28117,7.28032v31.69952z" data-paper-data="{&quot;origPos&quot;:null}" fill="url(#color-1)" fill-rule="nonzero"/><path d="M475.28038,187.01132v31.69868c0,2.4217 -1.969,4.39155 -4.39239,4.39155h-62.43866c-2.42085,0 -4.39155,-1.96985 -4.39155,-4.39155v-31.69952c0,-2.4217 1.9707,-4.39155 4.39155,-4.39155h62.43866c2.42339,0 4.39239,1.9707 4.39239,4.39239z" data-paper-data="{&quot;origPos&quot;:null}" fill="url(#color-2)" fill-rule="nonzero"/><text transform="translate(404.29717,211.84941) scale(0.79398,0.79398)" font-size="40" xml:space="preserve" data-paper-data="{&quot;origPos&quot;:null}" fill="#000000" fill-rule="nonzero" stroke="none" stroke-width="1" stroke-linecap="butt" stroke-linejoin="miter" stroke-miterlimit="10" stroke-dasharray="" stroke-dashoffset="0" font-family="Sans Serif" font-weight="normal" text-anchor="start" style="mix-blend-mode: normal"><tspan x="0" dy="0">Save</tspan></text><text transform="translate(402.13,179.48636) scale(0.8389,0.8389)" font-size="40" xml:space="preserve" data-paper-data="{&quot;origPos&quot;:null}" fill="#000000" fill-rule="nonzero" stroke="none" stroke-width="1" stroke-linecap="butt" stroke-linejoin="miter" stroke-miterlimit="10" stroke-dasharray="" stroke-dashoffset="0" font-family="Sans Serif" font-weight="normal" text-anchor="start" style="mix-blend-mode: normal"><tspan x="0" dy="0">With</tspan></text><text transform="translate(401,259.45057) scale(1.06195,1.06195)" font-size="40" xml:space="preserve" data-paper-data="{&quot;origPos&quot;:null}" fill="#000000" fill-rule="nonzero" stroke="none" stroke-width="1" stroke-linecap="butt" stroke-linejoin="miter" stroke-miterlimit="10" stroke-dasharray="" stroke-dashoffset="0" font-family="Sans Serif" font-weight="normal" text-anchor="start" style="mix-blend-mode: normal"><tspan x="0" dy="0">and</tspan></text><path d="M479.17,301.3123c0,4.12537 -3.34578,7.47029 -7.47028,7.47029h-64.0613c-4.12537,0 -7.46942,-3.34579 -7.46942,-7.47029v-32.52288c0,-4.12537 3.34405,-7.46942 7.46942,-7.46942h64.06043c4.12711,0 7.47028,3.34405 7.47028,7.46942v32.52288z" data-paper-data="{&quot;origPos&quot;:null}" fill="url(#color-3)" fill-rule="nonzero"/><path d="M476.20533,267.78944v32.52201c0,2.4846 -2.02015,4.50561 -4.50648,4.50561h-64.06043c-2.48373,0 -4.50561,-2.02101 -4.50561,-4.50561v-32.52288c0,-2.4846 2.02188,-4.50561 4.50561,-4.50561h64.06043c2.48633,0 4.50648,2.02188 4.50648,4.50648z" data-paper-data="{&quot;origPos&quot;:null}" fill="url(#color-4)" fill-rule="nonzero"/><text transform="translate(403.37842,293.32902) scale(0.77503,0.77503)" font-size="40" xml:space="preserve" data-paper-data="{&quot;origPos&quot;:null}" fill="#000000" fill-rule="nonzero" stroke="none" stroke-width="1" stroke-linecap="butt" stroke-linejoin="miter" stroke-miterlimit="10" stroke-dasharray="" stroke-dashoffset="0" font-family="Sans Serif" font-weight="normal" text-anchor="start" style="mix-blend-mode: normal"><tspan x="0" dy="0">Load</tspan></text><text transform="translate(449.48927,359.3557) rotate(-180) scale(1.7917,-1.7917)" font-size="40" xml:space="preserve" data-paper-data="{&quot;origPos&quot;:null}" fill="#000000" fill-rule="nonzero" stroke="none" stroke-width="1" stroke-linecap="butt" stroke-linejoin="miter" stroke-miterlimit="10" stroke-dasharray="" stroke-dashoffset="0" font-family="Sans Serif" font-weight="normal" text-anchor="start" style="mix-blend-mode: normal"><tspan x="0" dy="0">!</tspan></text></g></g></svg>