<svg version="1.1" xmlns="http://www.w3.org/2000/svg" xmlns:xlink="http://www.w3.org/1999/xlink" width="79.4" height="209.76112" viewBox="0,0,79.4,209.76112"><g transform="translate(-200.3,-150.4)"><g data-paper-data="{&quot;isPaintingLayer&quot;:true}" fill-rule="nonzero" stroke-linecap="butt" stroke-linejoin="miter" stroke-miterlimit="10" stroke-dasharray="" stroke-dashoffset="0" style="mix-blend-mode: normal"><path d="M202.7,165.1l42.8,-14.5l34.2,16.1v192.6h-79.4l2.4,-194.2" fill="#7aded4" stroke="none" stroke-width="1"/><path d="M245,150.4l0.4,209.6h-45.1v-195.6c0,0 39.3,-11.8 44.7,-14z" fill="#e7f5f5" stroke="none" stroke-width="1"/><path d="M204.5,170.9l34.7,-9.6" fill="none" stroke="#7aded4" stroke-width="4.4846"/><path d="M204.5,180.3l34.7,-9.7" fill="none" stroke="#7aded4" stroke-width="4.4846"/><path d="M204.5,189.7l34.7,-9.7" fill="none" stroke="#7aded4" stroke-width="4.4846"/><path d="M204.5,199l34.7,-9.7" fill="none" stroke="#7aded4" stroke-width="4.4846"/><path d="M204.5,208.4l34.7,-9.7" fill="none" stroke="#7aded4" stroke-width="4.4846"/><path d="M239.2,208l-34.7,9.7" fill="none" stroke="#7aded4" stroke-width="4.4846"/><path d="M204.5,227.1l34.7,-9.7" fill="none" stroke="#7aded4" stroke-width="4.4846"/><path d="M239.2,226.7l-34.7,9.7" fill="none" stroke="#7aded4" stroke-width="4.4846"/><path d="M204.5,245.8l34.7,-9.7" fill="none" stroke="#7aded4" stroke-width="4.4846"/><path d="M239.2,245.5l-34.7,9.6" fill="none" stroke="#7aded4" stroke-width="4.4846"/><path d="M239.2,254.8l-34.7,9.7" fill="none" stroke="#7aded4" stroke-width="4.4846"/><path d="M239.2,264.2l-34.7,9.6" fill="none" stroke="#7aded4" stroke-width="4.4846"/><path d="M204.5,283.2l34.7,-9.7" fill="none" stroke="#7aded4" stroke-width="4.4846"/><path d="M204.5,292.6l34.7,-9.7" fill="none" stroke="#7aded4" stroke-width="4.4846"/><path d="M204.5,301.9l34.7,-9.7" fill="none" stroke="#7aded4" stroke-width="4.4846"/><path d="M204.5,311.3l34.7,-9.7" fill="none" stroke="#7aded4" stroke-width="4.4846"/><path d="M204.5,320.6l34.7,-9.7" fill="none" stroke="#7aded4" stroke-width="4.4846"/><path d="M204.5,330l34.7,-9.7" fill="none" stroke="#7aded4" stroke-width="4.4846"/><path d="M204.5,339.3l34.7,-9.7" fill="none" stroke="#7aded4" stroke-width="4.4846"/><path d="M239.2,339l-34.7,9.7" fill="none" stroke="#7aded4" stroke-width="4.4846"/><path d="M204.5,358l34.7,-9.6" fill="none" stroke="#7aded4" stroke-width="4.4846"/></g></g></svg>