<svg version="1.1" xmlns="http://www.w3.org/2000/svg" xmlns:xlink="http://www.w3.org/1999/xlink" width="209.96465" height="32.67295" viewBox="0,0,209.96465,32.67295"><g transform="translate(-135.01768,-163.66352)"><g data-paper-data="{&quot;isPaintingLayer&quot;:true}" fill-rule="nonzero" stroke-width="0.45184" stroke-linecap="butt" stroke-linejoin="miter" stroke-miterlimit="10" stroke-dasharray="" stroke-dashoffset="0" style="mix-blend-mode: normal"><path d="M136.98407,193.89646c3.7955,-2.1236 9.5338,-4.925 15.7692,-6.5968c6.9131,-1.8525 12.3804,-2.5303 15.5884,-2.6658c2.1237,-1.8074 23.3149,-21.1009 51.6,-20.7394c24.7607,0.2711 40.9365,10.4826 45.4097,13.4648c17.6217,-5.9643 28.0592,-6.868 41.2528,-4.654c18.3899,3.1177 16.0403,13.1937 16.4018,13.6907c0.4518,0.6326 7.4101,-1.9881 15.8595,2.44c5.151,2.711 7.6361,7.2746 4.5184,7.2746c-2.4399,0 -202.3332,-0.3163 -207.2131,0c-1.4459,0 -1.2199,-1.0845 0.8133,-2.2141z" fill="#ffffff" stroke="#e3deee"/><path d="M168.34167,184.63386c2.1237,-1.8074 23.3149,-21.1009 51.6,-20.7394c24.7607,0.2711 40.9365,10.4826 45.4097,13.4648c-13.0129,4.1569 -24.0378,11.2056 -35.3789,11.7478c-14.4589,0.6777 -41.8403,-5.0154 -61.6308,-4.4732z" fill="#e3deee" stroke="none"/></g></g></svg>