<svg version="1.1" xmlns="http://www.w3.org/2000/svg" xmlns:xlink="http://www.w3.org/1999/xlink" width="198.19378" height="18.61862" viewBox="0,0,198.19378,18.61862"><g transform="translate(-140.93376,-170.66004)"><g data-paper-data="{&quot;isPaintingLayer&quot;:true}" fill-rule="nonzero" stroke-width="0.61313" stroke-linecap="butt" stroke-linejoin="miter" stroke-miterlimit="10" stroke-dasharray="" stroke-dashoffset="0" style="mix-blend-mode: normal"><path d="M141.74019,181.43059c4.4146,-4.1693 22.3794,3.1269 31.8216,3.6788c8.1547,-0.9197 14.7152,-2.9431 14.8378,-3.6788c0.1227,-0.9197 -1.5328,-2.5139 0.1227,-4.3533c3.0656,-3.3722 17.5969,-6.7444 33.3544,-6.0087c14.2246,0.6745 29.553,7.1124 37.2171,8.7678c3.8627,-0.7357 23.3604,-5.2729 38.3208,-4.5372c16.0028,0.7971 17.9035,4.8438 19.1297,5.273c0.4905,0.1839 21.5823,-1.5942 22.2567,2.2073c0.7971,4.6598 -22.4406,6.1926 -35.0098,6.1926c-12.5692,0 -146.1095,0 -152.3022,0c-7.4802,0 -11.7721,-5.5795 -9.7488,-7.5415z" fill="#ffffff" stroke="#e3deee"/><path d="M313.60129,188.78819c-3.6175,0.1839 -6.9897,0.2452 -9.8714,0.2452c-12.5693,0 -146.1095,0 -152.3022,0c-7.4802,0 -11.7721,-5.6408 -9.7488,-7.5415c0.7358,-0.7358 1.9621,-1.1037 3.4336,-1.2263c-2.3299,0.5518 -3.6175,1.7168 -2.2686,3.7401c1.4102,1.962 4.2919,3.7401 9.197,3.8014c4.905,0.1227 13.5502,-1.2262 21.4596,-2.6364c8.1547,-0.9197 14.7152,-2.9431 14.8378,-3.6788c0.3066,-0.4905 -0.3679,-1.5329 0.184,-2.6365c0.3678,-0.7357 1.4715,-1.7168 3.3722,-2.5138c4.4759,-1.9007 16.6772,-4.9051 31.3311,-3.7401c14.6538,1.1649 26.8552,6.4378 36.2361,9.1969c9.4422,2.6978 30.2887,7.1737 54.1396,6.9898z" fill="#e3deee" stroke="none"/></g></g></svg>