<svg version="1.1" xmlns="http://www.w3.org/2000/svg" xmlns:xlink="http://www.w3.org/1999/xlink" width="151.84304" height="28.71243" viewBox="0,0,151.84304,28.71243"><g transform="translate(-164.07848,-165.72062)"><g data-paper-data="{&quot;isPaintingLayer&quot;:true}" fill-rule="nonzero" stroke-width="0.30736" stroke-linecap="butt" stroke-linejoin="miter" stroke-miterlimit="10" stroke-dasharray="" stroke-dashoffset="0" style="mix-blend-mode: normal"><path d="M174.13935,183.55258c-0.9835,-6.9155 5.5017,-17.0583 16.4436,-17.0583c15.8289,0 29.076,18.841 63.5307,15.0912l6.9155,9.0978l-12.1406,2.5818l-18.0111,1.0143h-17.3349c0,0 -14.999,-1.168 -22.8366,-1.0143c-12.8168,0.2459 -15.4601,-4.1493 -16.5666,-9.7125z" fill="#ffffff" stroke="#e3deee"/><path d="M311.95815,187.67118c-4.5488,3.9649 -16.044,6.5467 -26.5249,6.5467c-5.1021,0 -29.6906,0.0307 -54.4943,0.0307c7.8068,-2.7047 15.1219,-9.3744 18.257,-11.7103c3.9341,-2.9506 10.0813,-10.0813 15.0297,-11.8639c5.5324,-1.9671 7.8684,0.1844 12.0791,0.3995c3.7498,0.1844 9.5896,-5.1636 20.8696,-5.348c7.3151,-0.1229 12.6631,1.9056 16.2284,6.5467c3.9649,5.1636 3.0736,11.4644 -1.4446,15.3986z" fill="#e3deee" stroke="none"/><path d="M193.93315,184.75128c7.6532,4.1801 12.2943,7.7761 19.6094,9.5281c-19.7016,0 -36.4525,0 -39.2188,-0.0308c-5.5324,-0.0614 -12.5709,-3.9649 -9.4973,-8.5138c4.1801,-6.1471 18.2263,-6.9462 29.1067,-0.9835z" fill="#e3deee" stroke="none"/></g></g></svg>